<?xml version="1.0" encoding="UTF-8" standalone="no"?>
<!-- Created with Inkscape (http://www.inkscape.org/) -->

<svg
   xmlns:dc="http://purl.org/dc/elements/1.1/"
   xmlns:cc="http://creativecommons.org/ns#"
   xmlns:rdf="http://www.w3.org/1999/02/22-rdf-syntax-ns#"
   xmlns:svg="http://www.w3.org/2000/svg"
   xmlns="http://www.w3.org/2000/svg"
   xmlns:sodipodi="http://sodipodi.sourceforge.net/DTD/sodipodi-0.dtd"
   xmlns:inkscape="http://www.inkscape.org/namespaces/inkscape"
   width="2979.9211"
   height="2104.7244"
   id="svg2"
   version="1.1"
   inkscape:version="0.48.4 r9939"
   sodipodi:docname="back-panels.svg">
  <sodipodi:namedview
     id="base"
     pagecolor="#ffffff"
     bordercolor="#666666"
     borderopacity="1.0"
     inkscape:pageopacity="0.0"
     inkscape:pageshadow="2"
     inkscape:zoom="0.7"
     inkscape:cx="1338.9676"
     inkscape:cy="1113.161"
     inkscape:document-units="mm"
     inkscape:current-layer="layer1"
     showgrid="true"
     units="mm"
     inkscape:showpageshadow="false"
     borderlayer="true"
     inkscape:window-width="1920"
     inkscape:window-height="1058"
     inkscape:window-x="1912"
     inkscape:window-y="-8"
     inkscape:window-maximized="1"
     inkscape:snap-bbox="true"
     inkscape:snap-bbox-midpoints="true"
     inkscape:snap-bbox-edge-midpoints="false"
     inkscape:bbox-nodes="true"
     inkscape:bbox-paths="true"
     inkscape:snap-object-midpoints="true"
     inkscape:snap-midpoints="true"
     inkscape:snap-nodes="false"
     inkscape:snap-grids="true">
    <inkscape:grid
       spacingy="10mm"
       spacingx="10mm"
       units="mm"
       snapvisiblegridlinesonly="true"
       enabled="true"
       visible="true"
       empspacing="5"
       id="grid3754"
       type="xygrid" />
  </sodipodi:namedview>
  <defs
     id="defs4" />
  <metadata
     id="metadata7">
    <rdf:RDF>
      <cc:Work
         rdf:about="">
        <dc:format>image/svg+xml</dc:format>
        <dc:type
           rdf:resource="http://purl.org/dc/dcmitype/StillImage" />
        <dc:title />
      </cc:Work>
    </rdf:RDF>
  </metadata>
  <g
     transform="translate(0,1052.3634)"
     id="layer1"
     inkscape:groupmode="layer"
     inkscape:label="Layer 1">
    <path
       style="fill:none;stroke:#000000;stroke-width:2.65748024;stroke-miterlimit:4;stroke-opacity:1"
       d="m 354.33075,-790.15869 1488.18895,0 0,1488.18896 -1488.18895,0 z"
       id="rect2984" />
    <rect
       y="449.99875"
       x="588.18903"
       height="141.73228"
       width="1020.4724"
       id="rect2986"
       style="fill:none;stroke:#000000;stroke-width:2.65748024;stroke-miterlimit:4;stroke-opacity:1;stroke-dasharray:none" />
    <path
       id="path3372"
       d="m 708.669,-10.626102 -42.83068,0 m -11.69291,0 -73.96843,0 m -11.69291,0 -73.96843,0 m -11.69292,0 -73.96843,0 m -11.69291,0 -42.83067,0 M 708.669,3.5469279 l -42.83068,0 m -11.69291,0 -73.96843,0 m -11.69291,0 -73.96843,0 m -11.69292,0 -73.96843,0 m -11.69291,0 -42.83067,0 M 708.669,17.719958 l -42.83068,0 m -11.69291,0 -73.96843,0 m -11.69291,0 -73.96843,0 m -11.69292,0 -73.96843,0 m -11.69291,0 -42.83067,0 m 354.33829,14.17302 -42.83068,0 m -11.69291,0 -73.96843,0 m -11.69291,0 -73.96843,0 m -11.69292,0 -73.96843,0 m -11.69291,0 -42.83067,0 m 354.33829,14.17303 -42.83068,0 m -11.69291,0 -73.96843,0 m -11.69291,0 -73.96843,0 m -11.69292,0 -73.96843,0 m -11.69291,0 -42.83067,0 m 354.33829,14.17302 -42.83068,0 m -11.69291,0 -73.96843,0 m -11.69291,0 -73.96843,0 m -11.69292,0 -73.96843,0 m -11.69291,0 -42.83067,0 m 354.33829,14.17303 -42.83068,0 m -11.69291,0 -73.96843,0 m -11.69291,0 -73.96843,0 m -11.69292,0 -73.96843,0 m -11.69291,0 -42.83067,0 m 354.33829,14.17303 -42.83068,0 m -11.69291,0 -73.96843,0 m -11.69291,0 -73.96843,0 m -11.69292,0 -73.96843,0 m -11.69291,0 -42.83067,0 m 354.33829,14.173022 -42.83068,0 m -11.69291,0 -73.96843,0 m -11.69291,0 -73.96843,0 m -11.69292,0 -73.96843,0 m -11.69291,0 -42.83067,0 m 354.33829,14.17303 -42.83068,0 m -11.69291,0 -73.96843,0 m -11.69291,0 -73.96843,0 m -11.69292,0 -73.96843,0 m -11.69291,0 -42.83067,0 m 354.33829,14.17302 -42.83068,0 m -11.69291,0 -73.96843,0 m -11.69291,0 -73.96843,0 m -11.69292,0 -73.96843,0 m -11.69291,0 -42.83067,0 m 354.33829,14.17303 -42.83068,0 m -11.69291,0 -73.96843,0 m -11.69291,0 -73.96843,0 m -11.69292,0 -73.96843,0 m -11.69291,0 -42.83067,0 m 354.33829,14.17303 -42.83068,0 m -11.69291,0 -73.96843,0 m -11.69291,0 -73.96843,0 m -11.69292,0 -73.96843,0 m -11.69291,0 -42.83067,0 m 354.33829,14.17302 -42.83068,0 m -11.69291,0 -73.96843,0 m -11.69291,0 -73.96843,0 m -11.69292,0 -73.96843,0 m -11.69291,0 -42.83067,0 m 354.33829,14.17303 -42.83068,0 m -11.69291,0 -73.96843,0 m -11.69291,0 -73.96843,0 m -11.69292,0 -73.96843,0 m -11.69291,0 -42.83067,0 m 354.33829,14.17302 -42.83068,0 m -11.69291,0 -73.96843,0 m -11.69291,0 -73.96843,0 m -11.69292,0 -73.96843,0 m -11.69291,0 -42.83067,0 m 354.33829,14.17303 -42.83068,0 m -11.69291,0 -73.96843,0 m -11.69291,0 -73.96843,0 m -11.69292,0 -73.96843,0 m -11.69291,0 -42.83067,0 m 354.33829,14.17303 -42.83068,0 m -11.69291,0 -73.96843,0 m -11.69291,0 -73.96843,0 m -11.69292,0 -73.96843,0 m -11.69291,0 -42.83067,0 m 354.33829,14.17302 -42.83068,0 m -11.69291,0 -73.96843,0 m -11.69291,0 -73.96843,0 m -11.69292,0 -73.96843,0 m -11.69291,0 -42.83067,0 m 354.33829,14.17303 -42.83068,0 m -11.69291,0 -73.96843,0 m -11.69291,0 -73.96843,0 m -11.69292,0 -73.96843,0 m -11.69291,0 -42.83067,0 m 354.33829,14.17302 -42.83068,0 m -11.69291,0 -73.96843,0 m -11.69291,0 -73.96843,0 m -11.69292,0 -73.96843,0 m -11.69291,0 -42.83067,0 m 354.33829,14.17303 -42.83068,0 m -11.69291,0 -73.96843,0 m -11.69291,0 -73.96843,0 m -11.69292,0 -73.96843,0 m -11.69291,0 -42.83067,0 m 354.33829,14.17303 -42.83068,0 m -11.69291,0 -73.96843,0 m -11.69291,0 -73.96843,0 m -11.69292,0 -73.96843,0 m -11.69291,0 -42.83067,0 m 354.33829,14.17302 -42.83068,0 m -11.69291,0 -73.96843,0 m -11.69291,0 -73.96843,0 m -11.69292,0 -73.96843,0 m -11.69291,0 -42.83067,0 m 354.33829,14.17303 -42.83068,0 m -11.69291,0 -73.96843,0 m -11.69291,0 -73.96843,0 m -11.69292,0 -73.96843,0 m -11.69291,0 -42.83067,0 m 354.33829,14.17302 -42.83068,0 m -11.69291,0 -73.96843,0 m -11.69291,0 -73.96843,0 m -11.69292,0 -73.96843,0 m -11.69291,0 -42.83067,0 m 342.64537,-347.2391321 -73.96843,0 m -11.69291,0 -73.96843,0 m -11.69292,0 -73.96843,0 m -11.69291,0 -73.96843,0 m -11.69291,0 0,0 m 342.64537,14.1730201 -73.96843,0 m -11.69291,0 -73.96843,0 m -11.69292,0 -73.96843,0 m -11.69291,0 -73.96843,0 m -11.69291,0 0,0 m 342.64537,14.17303 -73.96843,0 m -11.69291,0 -73.96843,0 m -11.69292,0 -73.96843,0 m -11.69291,0 -73.96843,0 m -11.69291,0 0,0 m 342.64537,14.17302 -73.96843,0 m -11.69291,0 -73.96843,0 m -11.69292,0 -73.96843,0 m -11.69291,0 -73.96843,0 m -11.69291,0 0,0 m 342.64537,14.17303 -73.96843,0 m -11.69291,0 -73.96843,0 m -11.69292,0 -73.96843,0 m -11.69291,0 -73.96843,0 m -11.69291,0 0,0 m 342.64537,14.17303 -73.96843,0 m -11.69291,0 -73.96843,0 m -11.69292,0 -73.96843,0 m -11.69291,0 -73.96843,0 m -11.69291,0 0,0 m 342.64537,14.17302 -73.96843,0 m -11.69291,0 -73.96843,0 m -11.69292,0 -73.96843,0 m -11.69291,0 -73.96843,0 m -11.69291,0 0,0 m 342.64537,14.17303 -73.96843,0 m -11.69291,0 -73.96843,0 m -11.69292,0 -73.96843,0 m -11.69291,0 -73.96843,0 m -11.69291,0 0,0 m 342.64537,14.173022 -73.96843,0 m -11.69291,0 -73.96843,0 m -11.69292,0 -73.96843,0 m -11.69291,0 -73.96843,0 m -11.69291,0 0,0 m 342.64537,14.17303 -73.96843,0 m -11.69291,0 -73.96843,0 m -11.69292,0 -73.96843,0 m -11.69291,0 -73.96843,0 m -11.69291,0 0,0 m 342.64537,14.17303 -73.96843,0 m -11.69291,0 -73.96843,0 m -11.69292,0 -73.96843,0 m -11.69291,0 -73.96843,0 m -11.69291,0 0,0 m 342.64537,14.17302 -73.96843,0 m -11.69291,0 -73.96843,0 m -11.69292,0 -73.96843,0 m -11.69291,0 -73.96843,0 m -11.69291,0 0,0 m 342.64537,14.17303 -73.96843,0 m -11.69291,0 -73.96843,0 m -11.69292,0 -73.96843,0 m -11.69291,0 -73.96843,0 m -11.69291,0 0,0 m 342.64537,14.17302 -73.96843,0 m -11.69291,0 -73.96843,0 m -11.69292,0 -73.96843,0 m -11.69291,0 -73.96843,0 m -11.69291,0 0,0 m 342.64537,14.17303 -73.96843,0 m -11.69291,0 -73.96843,0 m -11.69292,0 -73.96843,0 m -11.69291,0 -73.96843,0 m -11.69291,0 0,0 m 342.64537,14.17303 -73.96843,0 m -11.69291,0 -73.96843,0 m -11.69292,0 -73.96843,0 m -11.69291,0 -73.96843,0 m -11.69291,0 0,0 m 342.64537,14.17302 -73.96843,0 m -11.69291,0 -73.96843,0 m -11.69292,0 -73.96843,0 m -11.69291,0 -73.96843,0 m -11.69291,0 0,0 m 342.64537,14.17303 -73.96843,0 m -11.69291,0 -73.96843,0 m -11.69292,0 -73.96843,0 m -11.69291,0 -73.96843,0 m -11.69291,0 0,0 m 342.64537,14.17302 -73.96843,0 m -11.69291,0 -73.96843,0 m -11.69292,0 -73.96843,0 m -11.69291,0 -73.96843,0 m -11.69291,0 0,0 m 342.64537,14.17303 -73.96843,0 m -11.69291,0 -73.96843,0 m -11.69292,0 -73.96843,0 m -11.69291,0 -73.96843,0 m -11.69291,0 0,0 m 342.64537,14.17303 -73.96843,0 m -11.69291,0 -73.96843,0 m -11.69292,0 -73.96843,0 m -11.69291,0 -73.96843,0 m -11.69291,0 0,0 m 342.64537,14.17302 -73.96843,0 m -11.69291,0 -73.96843,0 m -11.69292,0 -73.96843,0 m -11.69291,0 -73.96843,0 m -11.69291,0 0,0 m 342.64537,14.17303 -73.96843,0 m -11.69291,0 -73.96843,0 m -11.69292,0 -73.96843,0 m -11.69291,0 -73.96843,0 m -11.69291,0 0,0 m 342.64537,14.17302 -73.96843,0 m -11.69291,0 -73.96843,0 m -11.69292,0 -73.96843,0 m -11.69291,0 -73.96843,0 m -11.69291,0 0,0 m 342.64537,14.17303 -73.96843,0 m -11.69291,0 -73.96843,0 m -11.69292,0 -73.96843,0 m -11.69291,0 -73.96843,0 m -11.69291,0 0,0"
       style="fill:none;stroke:#000000;stroke-width:0.35433072"
       inkscape:connector-curvature="0">
      <desc
         id="desc3374">Hinge cut parameters: actual(requested)
cut length: 20.88 mm (19.00 mm)
gap length: 3.30 mm (3.30 mm)
separation distance: 2.00 mm (2.00 mm)</desc>
    </path>
    <path
       inkscape:connector-curvature="0"
       style="fill:none;stroke:#000000;stroke-width:0.35433072"
       d="m 1062.9959,-10.628632 -42.8307,0 m -11.6929,0 -73.9684,0 m -11.69291,0 -73.96843,0 m -11.69292,0 -73.96843,0 m -11.69291,0 -42.83067,0 m 354.33827,14.1730295 -42.8307,0 m -11.6929,0 -73.9684,0 m -11.69291,0 -73.96843,0 m -11.69292,0 -73.96843,0 m -11.69291,0 -42.83067,0 m 354.33827,14.1730305 -42.8307,0 m -11.6929,0 -73.9684,0 m -11.69291,0 -73.96843,0 m -11.69292,0 -73.96843,0 m -11.69291,0 -42.83067,0 m 354.33827,14.17302 -42.8307,0 m -11.6929,0 -73.9684,0 m -11.69291,0 -73.96843,0 m -11.69292,0 -73.96843,0 m -11.69291,0 -42.83067,0 m 354.33827,14.17303 -42.8307,0 m -11.6929,0 -73.9684,0 m -11.69291,0 -73.96843,0 m -11.69292,0 -73.96843,0 m -11.69291,0 -42.83067,0 m 354.33827,14.17302 -42.8307,0 m -11.6929,0 -73.9684,0 m -11.69291,0 -73.96843,0 m -11.69292,0 -73.96843,0 m -11.69291,0 -42.83067,0 m 354.33827,14.17303 -42.8307,0 m -11.6929,0 -73.9684,0 m -11.69291,0 -73.96843,0 m -11.69292,0 -73.96843,0 m -11.69291,0 -42.83067,0 m 354.33827,14.17303 -42.8307,0 m -11.6929,0 -73.9684,0 m -11.69291,0 -73.96843,0 m -11.69292,0 -73.96843,0 m -11.69291,0 -42.83067,0 m 354.33827,14.173022 -42.8307,0 m -11.6929,0 -73.9684,0 m -11.69291,0 -73.96843,0 m -11.69292,0 -73.96843,0 m -11.69291,0 -42.83067,0 m 354.33827,14.17303 -42.8307,0 m -11.6929,0 -73.9684,0 m -11.69291,0 -73.96843,0 m -11.69292,0 -73.96843,0 m -11.69291,0 -42.83067,0 m 354.33827,14.17302 -42.8307,0 m -11.6929,0 -73.9684,0 m -11.69291,0 -73.96843,0 m -11.69292,0 -73.96843,0 m -11.69291,0 -42.83067,0 m 354.33827,14.17303 -42.8307,0 m -11.6929,0 -73.9684,0 m -11.69291,0 -73.96843,0 m -11.69292,0 -73.96843,0 m -11.69291,0 -42.83067,0 m 354.33827,14.17303 -42.8307,0 m -11.6929,0 -73.9684,0 m -11.69291,0 -73.96843,0 m -11.69292,0 -73.96843,0 m -11.69291,0 -42.83067,0 m 354.33827,14.17302 -42.8307,0 m -11.6929,0 -73.9684,0 m -11.69291,0 -73.96843,0 m -11.69292,0 -73.96843,0 m -11.69291,0 -42.83067,0 m 354.33827,14.17303 -42.8307,0 m -11.6929,0 -73.9684,0 m -11.69291,0 -73.96843,0 m -11.69292,0 -73.96843,0 m -11.69291,0 -42.83067,0 m 354.33827,14.17302 -42.8307,0 m -11.6929,0 -73.9684,0 m -11.69291,0 -73.96843,0 m -11.69292,0 -73.96843,0 m -11.69291,0 -42.83067,0 m 354.33827,14.17303 -42.8307,0 m -11.6929,0 -73.9684,0 m -11.69291,0 -73.96843,0 m -11.69292,0 -73.96843,0 m -11.69291,0 -42.83067,0 m 354.33827,14.17303 -42.8307,0 m -11.6929,0 -73.9684,0 m -11.69291,0 -73.96843,0 m -11.69292,0 -73.96843,0 m -11.69291,0 -42.83067,0 m 354.33827,14.17302 -42.8307,0 m -11.6929,0 -73.9684,0 m -11.69291,0 -73.96843,0 m -11.69292,0 -73.96843,0 m -11.69291,0 -42.83067,0 m 354.33827,14.17303 -42.8307,0 m -11.6929,0 -73.9684,0 m -11.69291,0 -73.96843,0 m -11.69292,0 -73.96843,0 m -11.69291,0 -42.83067,0 m 354.33827,14.17302 -42.8307,0 m -11.6929,0 -73.9684,0 m -11.69291,0 -73.96843,0 m -11.69292,0 -73.96843,0 m -11.69291,0 -42.83067,0 m 354.33827,14.17303 -42.8307,0 m -11.6929,0 -73.9684,0 m -11.69291,0 -73.96843,0 m -11.69292,0 -73.96843,0 m -11.69291,0 -42.83067,0 m 354.33827,14.17303 -42.8307,0 m -11.6929,0 -73.9684,0 m -11.69291,0 -73.96843,0 m -11.69292,0 -73.96843,0 m -11.69291,0 -42.83067,0 m 354.33827,14.17302 -42.8307,0 m -11.6929,0 -73.9684,0 m -11.69291,0 -73.96843,0 m -11.69292,0 -73.96843,0 m -11.69291,0 -42.83067,0 m 354.33827,14.17303 -42.8307,0 m -11.6929,0 -73.9684,0 m -11.69291,0 -73.96843,0 m -11.69292,0 -73.96843,0 m -11.69291,0 -42.83067,0 m 354.33827,14.17302 -42.8307,0 m -11.6929,0 -73.9684,0 m -11.69291,0 -73.96843,0 m -11.69292,0 -73.96843,0 m -11.69291,0 -42.83067,0 M 1051.303,-3.5421125 l -73.96843,0 m -11.69291,0 -73.96843,0 m -11.69292,0 -73.96843,0 m -11.69291,0 -73.96843,0 m -11.69291,0 0,0 m 342.64537,14.1730205 -73.96843,0 m -11.69291,0 -73.96843,0 m -11.69292,0 -73.96843,0 m -11.69291,0 -73.96843,0 m -11.69291,0 0,0 m 342.64537,14.17303 -73.96843,0 m -11.69291,0 -73.96843,0 m -11.69292,0 -73.96843,0 m -11.69291,0 -73.96843,0 m -11.69291,0 0,0 m 342.64537,14.17302 -73.96843,0 m -11.69291,0 -73.96843,0 m -11.69292,0 -73.96843,0 m -11.69291,0 -73.96843,0 m -11.69291,0 0,0 m 342.64537,14.17303 -73.96843,0 m -11.69291,0 -73.96843,0 m -11.69292,0 -73.96843,0 m -11.69291,0 -73.96843,0 m -11.69291,0 0,0 m 342.64537,14.17303 -73.96843,0 m -11.69291,0 -73.96843,0 m -11.69292,0 -73.96843,0 m -11.69291,0 -73.96843,0 m -11.69291,0 0,0 m 342.64537,14.17302 -73.96843,0 m -11.69291,0 -73.96843,0 m -11.69292,0 -73.96843,0 m -11.69291,0 -73.96843,0 m -11.69291,0 0,0 m 342.64537,14.17303 -73.96843,0 m -11.69291,0 -73.96843,0 m -11.69292,0 -73.96843,0 m -11.69291,0 -73.96843,0 m -11.69291,0 0,0 m 342.64537,14.173022 -73.96843,0 m -11.69291,0 -73.96843,0 m -11.69292,0 -73.96843,0 m -11.69291,0 -73.96843,0 m -11.69291,0 0,0 m 342.64537,14.17303 -73.96843,0 m -11.69291,0 -73.96843,0 m -11.69292,0 -73.96843,0 m -11.69291,0 -73.96843,0 m -11.69291,0 0,0 m 342.64537,14.17303 -73.96843,0 m -11.69291,0 -73.96843,0 m -11.69292,0 -73.96843,0 m -11.69291,0 -73.96843,0 m -11.69291,0 0,0 m 342.64537,14.17302 -73.96843,0 m -11.69291,0 -73.96843,0 m -11.69292,0 -73.96843,0 m -11.69291,0 -73.96843,0 m -11.69291,0 0,0 m 342.64537,14.17303 -73.96843,0 m -11.69291,0 -73.96843,0 m -11.69292,0 -73.96843,0 m -11.69291,0 -73.96843,0 m -11.69291,0 0,0 m 342.64537,14.17302 -73.96843,0 m -11.69291,0 -73.96843,0 m -11.69292,0 -73.96843,0 m -11.69291,0 -73.96843,0 m -11.69291,0 0,0 m 342.64537,14.17303 -73.96843,0 m -11.69291,0 -73.96843,0 m -11.69292,0 -73.96843,0 m -11.69291,0 -73.96843,0 m -11.69291,0 0,0 m 342.64537,14.17303 -73.96843,0 m -11.69291,0 -73.96843,0 m -11.69292,0 -73.96843,0 m -11.69291,0 -73.96843,0 m -11.69291,0 0,0 m 342.64537,14.17302 -73.96843,0 m -11.69291,0 -73.96843,0 m -11.69292,0 -73.96843,0 m -11.69291,0 -73.96843,0 m -11.69291,0 0,0 m 342.64537,14.17303 -73.96843,0 m -11.69291,0 -73.96843,0 m -11.69292,0 -73.96843,0 m -11.69291,0 -73.96843,0 m -11.69291,0 0,0 m 342.64537,14.17302 -73.96843,0 m -11.69291,0 -73.96843,0 m -11.69292,0 -73.96843,0 m -11.69291,0 -73.96843,0 m -11.69291,0 0,0 m 342.64537,14.17303 -73.96843,0 m -11.69291,0 -73.96843,0 m -11.69292,0 -73.96843,0 m -11.69291,0 -73.96843,0 m -11.69291,0 0,0 m 342.64537,14.17303 -73.96843,0 m -11.69291,0 -73.96843,0 m -11.69292,0 -73.96843,0 m -11.69291,0 -73.96843,0 m -11.69291,0 0,0 m 342.64537,14.17302 -73.96843,0 m -11.69291,0 -73.96843,0 m -11.69292,0 -73.96843,0 m -11.69291,0 -73.96843,0 m -11.69291,0 0,0 m 342.64537,14.17303 -73.96843,0 m -11.69291,0 -73.96843,0 m -11.69292,0 -73.96843,0 m -11.69291,0 -73.96843,0 m -11.69291,0 0,0 m 342.64537,14.17302 -73.96843,0 m -11.69291,0 -73.96843,0 m -11.69292,0 -73.96843,0 m -11.69291,0 -73.96843,0 m -11.69291,0 0,0 m 342.64537,14.17303 -73.96843,0 m -11.69291,0 -73.96843,0 m -11.69292,0 -73.96843,0 m -11.69291,0 -73.96843,0 m -11.69291,0 0,0"
       id="path3385">
      <desc
         id="desc3387">Hinge cut parameters: actual(requested)
cut length: 20.88 mm (19.00 mm)
gap length: 3.30 mm (3.30 mm)
separation distance: 2.00 mm (2.00 mm)</desc>
    </path>
    <path
       inkscape:connector-curvature="0"
       style="fill:none;stroke:#000000;stroke-width:0.35433072"
       d="m 1488.1928,-10.628632 -42.8307,0 m -11.6929,0 -73.9684,0 m -11.6929,0 -73.9684,0 m -11.693,0 -73.9684,0 m -11.6929,0 -42.8307,0 m 354.3383,14.1730291 -42.8307,0 m -11.6929,0 -73.9684,0 m -11.6929,0 -73.9684,0 m -11.693,0 -73.9684,0 m -11.6929,0 -42.8307,0 m 354.3383,14.1730309 -42.8307,0 m -11.6929,0 -73.9684,0 m -11.6929,0 -73.9684,0 m -11.693,0 -73.9684,0 m -11.6929,0 -42.8307,0 m 354.3383,14.17302 -42.8307,0 m -11.6929,0 -73.9684,0 m -11.6929,0 -73.9684,0 m -11.693,0 -73.9684,0 m -11.6929,0 -42.8307,0 m 354.3383,14.17303 -42.8307,0 m -11.6929,0 -73.9684,0 m -11.6929,0 -73.9684,0 m -11.693,0 -73.9684,0 m -11.6929,0 -42.8307,0 m 354.3383,14.17302 -42.8307,0 m -11.6929,0 -73.9684,0 m -11.6929,0 -73.9684,0 m -11.693,0 -73.9684,0 m -11.6929,0 -42.8307,0 m 354.3383,14.17303 -42.8307,0 m -11.6929,0 -73.9684,0 m -11.6929,0 -73.9684,0 m -11.693,0 -73.9684,0 m -11.6929,0 -42.8307,0 m 354.3383,14.17303 -42.8307,0 m -11.6929,0 -73.9684,0 m -11.6929,0 -73.9684,0 m -11.693,0 -73.9684,0 m -11.6929,0 -42.8307,0 m 354.3383,14.173022 -42.8307,0 m -11.6929,0 -73.9684,0 m -11.6929,0 -73.9684,0 m -11.693,0 -73.9684,0 m -11.6929,0 -42.8307,0 m 354.3383,14.17303 -42.8307,0 m -11.6929,0 -73.9684,0 m -11.6929,0 -73.9684,0 m -11.693,0 -73.9684,0 m -11.6929,0 -42.8307,0 m 354.3383,14.17302 -42.8307,0 m -11.6929,0 -73.9684,0 m -11.6929,0 -73.9684,0 m -11.693,0 -73.9684,0 m -11.6929,0 -42.8307,0 m 354.3383,14.17303 -42.8307,0 m -11.6929,0 -73.9684,0 m -11.6929,0 -73.9684,0 m -11.693,0 -73.9684,0 m -11.6929,0 -42.8307,0 m 354.3383,14.17303 -42.8307,0 m -11.6929,0 -73.9684,0 m -11.6929,0 -73.9684,0 m -11.693,0 -73.9684,0 m -11.6929,0 -42.8307,0 m 354.3383,14.17302 -42.8307,0 m -11.6929,0 -73.9684,0 m -11.6929,0 -73.9684,0 m -11.693,0 -73.9684,0 m -11.6929,0 -42.8307,0 m 354.3383,14.17303 -42.8307,0 m -11.6929,0 -73.9684,0 m -11.6929,0 -73.9684,0 m -11.693,0 -73.9684,0 m -11.6929,0 -42.8307,0 m 354.3383,14.17302 -42.8307,0 m -11.6929,0 -73.9684,0 m -11.6929,0 -73.9684,0 m -11.693,0 -73.9684,0 m -11.6929,0 -42.8307,0 m 354.3383,14.17303 -42.8307,0 m -11.6929,0 -73.9684,0 m -11.6929,0 -73.9684,0 m -11.693,0 -73.9684,0 m -11.6929,0 -42.8307,0 m 354.3383,14.17303 -42.8307,0 m -11.6929,0 -73.9684,0 m -11.6929,0 -73.9684,0 m -11.693,0 -73.9684,0 m -11.6929,0 -42.8307,0 m 354.3383,14.17302 -42.8307,0 m -11.6929,0 -73.9684,0 m -11.6929,0 -73.9684,0 m -11.693,0 -73.9684,0 m -11.6929,0 -42.8307,0 m 354.3383,14.17303 -42.8307,0 m -11.6929,0 -73.9684,0 m -11.6929,0 -73.9684,0 m -11.693,0 -73.9684,0 m -11.6929,0 -42.8307,0 m 354.3383,14.17302 -42.8307,0 m -11.6929,0 -73.9684,0 m -11.6929,0 -73.9684,0 m -11.693,0 -73.9684,0 m -11.6929,0 -42.8307,0 m 354.3383,14.17303 -42.8307,0 m -11.6929,0 -73.9684,0 m -11.6929,0 -73.9684,0 m -11.693,0 -73.9684,0 m -11.6929,0 -42.8307,0 m 354.3383,14.17303 -42.8307,0 m -11.6929,0 -73.9684,0 m -11.6929,0 -73.9684,0 m -11.693,0 -73.9684,0 m -11.6929,0 -42.8307,0 m 354.3383,14.17302 -42.8307,0 m -11.6929,0 -73.9684,0 m -11.6929,0 -73.9684,0 m -11.693,0 -73.9684,0 m -11.6929,0 -42.8307,0 m 354.3383,14.17303 -42.8307,0 m -11.6929,0 -73.9684,0 m -11.6929,0 -73.9684,0 m -11.693,0 -73.9684,0 m -11.6929,0 -42.8307,0 m 354.3383,14.17302 -42.8307,0 m -11.6929,0 -73.9684,0 m -11.6929,0 -73.9684,0 m -11.693,0 -73.9684,0 m -11.6929,0 -42.8307,0 m 342.6454,-347.2391329 -73.9684,0 m -11.6929,0 -73.9685,0 m -11.6929,0 -73.9684,0 m -11.6929,0 -73.9685,0 m -11.6929,0 0,0 m 342.6454,14.1730209 -73.9684,0 m -11.6929,0 -73.9685,0 m -11.6929,0 -73.9684,0 m -11.6929,0 -73.9685,0 m -11.6929,0 0,0 m 342.6454,14.17303 -73.9684,0 m -11.6929,0 -73.9685,0 m -11.6929,0 -73.9684,0 m -11.6929,0 -73.9685,0 m -11.6929,0 0,0 m 342.6454,14.17302 -73.9684,0 m -11.6929,0 -73.9685,0 m -11.6929,0 -73.9684,0 m -11.6929,0 -73.9685,0 m -11.6929,0 0,0 m 342.6454,14.17303 -73.9684,0 m -11.6929,0 -73.9685,0 m -11.6929,0 -73.9684,0 m -11.6929,0 -73.9685,0 m -11.6929,0 0,0 m 342.6454,14.17303 -73.9684,0 m -11.6929,0 -73.9685,0 m -11.6929,0 -73.9684,0 m -11.6929,0 -73.9685,0 m -11.6929,0 0,0 m 342.6454,14.17302 -73.9684,0 m -11.6929,0 -73.9685,0 m -11.6929,0 -73.9684,0 m -11.6929,0 -73.9685,0 m -11.6929,0 0,0 m 342.6454,14.17303 -73.9684,0 m -11.6929,0 -73.9685,0 m -11.6929,0 -73.9684,0 m -11.6929,0 -73.9685,0 m -11.6929,0 0,0 m 342.6454,14.173022 -73.9684,0 m -11.6929,0 -73.9685,0 m -11.6929,0 -73.9684,0 m -11.6929,0 -73.9685,0 m -11.6929,0 0,0 m 342.6454,14.17303 -73.9684,0 m -11.6929,0 -73.9685,0 m -11.6929,0 -73.9684,0 m -11.6929,0 -73.9685,0 m -11.6929,0 0,0 m 342.6454,14.17303 -73.9684,0 m -11.6929,0 -73.9685,0 m -11.6929,0 -73.9684,0 m -11.6929,0 -73.9685,0 m -11.6929,0 0,0 m 342.6454,14.17302 -73.9684,0 m -11.6929,0 -73.9685,0 m -11.6929,0 -73.9684,0 m -11.6929,0 -73.9685,0 m -11.6929,0 0,0 m 342.6454,14.17303 -73.9684,0 m -11.6929,0 -73.9685,0 m -11.6929,0 -73.9684,0 m -11.6929,0 -73.9685,0 m -11.6929,0 0,0 m 342.6454,14.17302 -73.9684,0 m -11.6929,0 -73.9685,0 m -11.6929,0 -73.9684,0 m -11.6929,0 -73.9685,0 m -11.6929,0 0,0 m 342.6454,14.17303 -73.9684,0 m -11.6929,0 -73.9685,0 m -11.6929,0 -73.9684,0 m -11.6929,0 -73.9685,0 m -11.6929,0 0,0 m 342.6454,14.17303 -73.9684,0 m -11.6929,0 -73.9685,0 m -11.6929,0 -73.9684,0 m -11.6929,0 -73.9685,0 m -11.6929,0 0,0 m 342.6454,14.17302 -73.9684,0 m -11.6929,0 -73.9685,0 m -11.6929,0 -73.9684,0 m -11.6929,0 -73.9685,0 m -11.6929,0 0,0 m 342.6454,14.17303 -73.9684,0 m -11.6929,0 -73.9685,0 m -11.6929,0 -73.9684,0 m -11.6929,0 -73.9685,0 m -11.6929,0 0,0 m 342.6454,14.17302 -73.9684,0 m -11.6929,0 -73.9685,0 m -11.6929,0 -73.9684,0 m -11.6929,0 -73.9685,0 m -11.6929,0 0,0 m 342.6454,14.17303 -73.9684,0 m -11.6929,0 -73.9685,0 m -11.6929,0 -73.9684,0 m -11.6929,0 -73.9685,0 m -11.6929,0 0,0 m 342.6454,14.17303 -73.9684,0 m -11.6929,0 -73.9685,0 m -11.6929,0 -73.9684,0 m -11.6929,0 -73.9685,0 m -11.6929,0 0,0 m 342.6454,14.17302 -73.9684,0 m -11.6929,0 -73.9685,0 m -11.6929,0 -73.9684,0 m -11.6929,0 -73.9685,0 m -11.6929,0 0,0 m 342.6454,14.17303 -73.9684,0 m -11.6929,0 -73.9685,0 m -11.6929,0 -73.9684,0 m -11.6929,0 -73.9685,0 m -11.6929,0 0,0 m 342.6454,14.17302 -73.9684,0 m -11.6929,0 -73.9685,0 m -11.6929,0 -73.9684,0 m -11.6929,0 -73.9685,0 m -11.6929,0 0,0 m 342.6454,14.17303 -73.9684,0 m -11.6929,0 -73.9685,0 m -11.6929,0 -73.9684,0 m -11.6929,0 -73.9685,0 m -11.6929,0 0,0"
       id="path3389">
      <desc
         id="desc3391">Hinge cut parameters: actual(requested)
cut length: 20.88 mm (19.00 mm)
gap length: 3.30 mm (3.30 mm)
separation distance: 2.00 mm (2.00 mm)</desc>
    </path>
    <path
       id="path3393"
       d="m 1842.5234,-10.628632 -42.8307,0 m -11.6929,0 -73.9684,0 m -11.6929,0 -73.9684,0 m -11.6929,0 -73.9685,0 m -11.6929,0 -42.8306,0 m 354.3382,14.1730287 -42.8307,0 m -11.6929,0 -73.9684,0 m -11.6929,0 -73.9684,0 m -11.6929,0 -73.9685,0 m -11.6929,0 -42.8306,0 m 354.3382,14.1730313 -42.8307,0 m -11.6929,0 -73.9684,0 m -11.6929,0 -73.9684,0 m -11.6929,0 -73.9685,0 m -11.6929,0 -42.8306,0 m 354.3382,14.17302 -42.8307,0 m -11.6929,0 -73.9684,0 m -11.6929,0 -73.9684,0 m -11.6929,0 -73.9685,0 m -11.6929,0 -42.8306,0 m 354.3382,14.17303 -42.8307,0 m -11.6929,0 -73.9684,0 m -11.6929,0 -73.9684,0 m -11.6929,0 -73.9685,0 m -11.6929,0 -42.8306,0 m 354.3382,14.17302 -42.8307,0 m -11.6929,0 -73.9684,0 m -11.6929,0 -73.9684,0 m -11.6929,0 -73.9685,0 m -11.6929,0 -42.8306,0 m 354.3382,14.17303 -42.8307,0 m -11.6929,0 -73.9684,0 m -11.6929,0 -73.9684,0 m -11.6929,0 -73.9685,0 m -11.6929,0 -42.8306,0 m 354.3382,14.17303 -42.8307,0 m -11.6929,0 -73.9684,0 m -11.6929,0 -73.9684,0 m -11.6929,0 -73.9685,0 m -11.6929,0 -42.8306,0 m 354.3382,14.173022 -42.8307,0 m -11.6929,0 -73.9684,0 m -11.6929,0 -73.9684,0 m -11.6929,0 -73.9685,0 m -11.6929,0 -42.8306,0 m 354.3382,14.17303 -42.8307,0 m -11.6929,0 -73.9684,0 m -11.6929,0 -73.9684,0 m -11.6929,0 -73.9685,0 m -11.6929,0 -42.8306,0 m 354.3382,14.17302 -42.8307,0 m -11.6929,0 -73.9684,0 m -11.6929,0 -73.9684,0 m -11.6929,0 -73.9685,0 m -11.6929,0 -42.8306,0 m 354.3382,14.17303 -42.8307,0 m -11.6929,0 -73.9684,0 m -11.6929,0 -73.9684,0 m -11.6929,0 -73.9685,0 m -11.6929,0 -42.8306,0 m 354.3382,14.17303 -42.8307,0 m -11.6929,0 -73.9684,0 m -11.6929,0 -73.9684,0 m -11.6929,0 -73.9685,0 m -11.6929,0 -42.8306,0 m 354.3382,14.17302 -42.8307,0 m -11.6929,0 -73.9684,0 m -11.6929,0 -73.9684,0 m -11.6929,0 -73.9685,0 m -11.6929,0 -42.8306,0 m 354.3382,14.17303 -42.8307,0 m -11.6929,0 -73.9684,0 m -11.6929,0 -73.9684,0 m -11.6929,0 -73.9685,0 m -11.6929,0 -42.8306,0 m 354.3382,14.17302 -42.8307,0 m -11.6929,0 -73.9684,0 m -11.6929,0 -73.9684,0 m -11.6929,0 -73.9685,0 m -11.6929,0 -42.8306,0 m 354.3382,14.17303 -42.8307,0 m -11.6929,0 -73.9684,0 m -11.6929,0 -73.9684,0 m -11.6929,0 -73.9685,0 m -11.6929,0 -42.8306,0 m 354.3382,14.17303 -42.8307,0 m -11.6929,0 -73.9684,0 m -11.6929,0 -73.9684,0 m -11.6929,0 -73.9685,0 m -11.6929,0 -42.8306,0 m 354.3382,14.17302 -42.8307,0 m -11.6929,0 -73.9684,0 m -11.6929,0 -73.9684,0 m -11.6929,0 -73.9685,0 m -11.6929,0 -42.8306,0 m 354.3382,14.17303 -42.8307,0 m -11.6929,0 -73.9684,0 m -11.6929,0 -73.9684,0 m -11.6929,0 -73.9685,0 m -11.6929,0 -42.8306,0 m 354.3382,14.17302 -42.8307,0 m -11.6929,0 -73.9684,0 m -11.6929,0 -73.9684,0 m -11.6929,0 -73.9685,0 m -11.6929,0 -42.8306,0 m 354.3382,14.17303 -42.8307,0 m -11.6929,0 -73.9684,0 m -11.6929,0 -73.9684,0 m -11.6929,0 -73.9685,0 m -11.6929,0 -42.8306,0 m 354.3382,14.17303 -42.8307,0 m -11.6929,0 -73.9684,0 m -11.6929,0 -73.9684,0 m -11.6929,0 -73.9685,0 m -11.6929,0 -42.8306,0 m 354.3382,14.17302 -42.8307,0 m -11.6929,0 -73.9684,0 m -11.6929,0 -73.9684,0 m -11.6929,0 -73.9685,0 m -11.6929,0 -42.8306,0 m 354.3382,14.17303 -42.8307,0 m -11.6929,0 -73.9684,0 m -11.6929,0 -73.9684,0 m -11.6929,0 -73.9685,0 m -11.6929,0 -42.8306,0 m 354.3382,14.17302 -42.8307,0 m -11.6929,0 -73.9684,0 m -11.6929,0 -73.9684,0 m -11.6929,0 -73.9685,0 m -11.6929,0 -42.8306,0 m 342.6453,-347.2391333 -73.9684,0 m -11.6929,0 -73.9684,0 m -11.693,0 -73.9684,0 m -11.6929,0 -73.9684,0 m -11.6929,0 0,0 m 342.6453,14.1730213 -73.9684,0 m -11.6929,0 -73.9684,0 m -11.693,0 -73.9684,0 m -11.6929,0 -73.9684,0 m -11.6929,0 0,0 m 342.6453,14.17303 -73.9684,0 m -11.6929,0 -73.9684,0 m -11.693,0 -73.9684,0 m -11.6929,0 -73.9684,0 m -11.6929,0 0,0 m 342.6453,14.17302 -73.9684,0 m -11.6929,0 -73.9684,0 m -11.693,0 -73.9684,0 m -11.6929,0 -73.9684,0 m -11.6929,0 0,0 m 342.6453,14.17303 -73.9684,0 m -11.6929,0 -73.9684,0 m -11.693,0 -73.9684,0 m -11.6929,0 -73.9684,0 m -11.6929,0 0,0 m 342.6453,14.17303 -73.9684,0 m -11.6929,0 -73.9684,0 m -11.693,0 -73.9684,0 m -11.6929,0 -73.9684,0 m -11.6929,0 0,0 m 342.6453,14.17302 -73.9684,0 m -11.6929,0 -73.9684,0 m -11.693,0 -73.9684,0 m -11.6929,0 -73.9684,0 m -11.6929,0 0,0 m 342.6453,14.17303 -73.9684,0 m -11.6929,0 -73.9684,0 m -11.693,0 -73.9684,0 m -11.6929,0 -73.9684,0 m -11.6929,0 0,0 m 342.6453,14.173022 -73.9684,0 m -11.6929,0 -73.9684,0 m -11.693,0 -73.9684,0 m -11.6929,0 -73.9684,0 m -11.6929,0 0,0 m 342.6453,14.17303 -73.9684,0 m -11.6929,0 -73.9684,0 m -11.693,0 -73.9684,0 m -11.6929,0 -73.9684,0 m -11.6929,0 0,0 m 342.6453,14.17303 -73.9684,0 m -11.6929,0 -73.9684,0 m -11.693,0 -73.9684,0 m -11.6929,0 -73.9684,0 m -11.6929,0 0,0 m 342.6453,14.17302 -73.9684,0 m -11.6929,0 -73.9684,0 m -11.693,0 -73.9684,0 m -11.6929,0 -73.9684,0 m -11.6929,0 0,0 m 342.6453,14.17303 -73.9684,0 m -11.6929,0 -73.9684,0 m -11.693,0 -73.9684,0 m -11.6929,0 -73.9684,0 m -11.6929,0 0,0 m 342.6453,14.17302 -73.9684,0 m -11.6929,0 -73.9684,0 m -11.693,0 -73.9684,0 m -11.6929,0 -73.9684,0 m -11.6929,0 0,0 m 342.6453,14.17303 -73.9684,0 m -11.6929,0 -73.9684,0 m -11.693,0 -73.9684,0 m -11.6929,0 -73.9684,0 m -11.6929,0 0,0 m 342.6453,14.17303 -73.9684,0 m -11.6929,0 -73.9684,0 m -11.693,0 -73.9684,0 m -11.6929,0 -73.9684,0 m -11.6929,0 0,0 m 342.6453,14.17302 -73.9684,0 m -11.6929,0 -73.9684,0 m -11.693,0 -73.9684,0 m -11.6929,0 -73.9684,0 m -11.6929,0 0,0 m 342.6453,14.17303 -73.9684,0 m -11.6929,0 -73.9684,0 m -11.693,0 -73.9684,0 m -11.6929,0 -73.9684,0 m -11.6929,0 0,0 m 342.6453,14.17302 -73.9684,0 m -11.6929,0 -73.9684,0 m -11.693,0 -73.9684,0 m -11.6929,0 -73.9684,0 m -11.6929,0 0,0 m 342.6453,14.17303 -73.9684,0 m -11.6929,0 -73.9684,0 m -11.693,0 -73.9684,0 m -11.6929,0 -73.9684,0 m -11.6929,0 0,0 m 342.6453,14.17303 -73.9684,0 m -11.6929,0 -73.9684,0 m -11.693,0 -73.9684,0 m -11.6929,0 -73.9684,0 m -11.6929,0 0,0 m 342.6453,14.17302 -73.9684,0 m -11.6929,0 -73.9684,0 m -11.693,0 -73.9684,0 m -11.6929,0 -73.9684,0 m -11.6929,0 0,0 m 342.6453,14.17303 -73.9684,0 m -11.6929,0 -73.9684,0 m -11.693,0 -73.9684,0 m -11.6929,0 -73.9684,0 m -11.6929,0 0,0 m 342.6453,14.17302 -73.9684,0 m -11.6929,0 -73.9684,0 m -11.693,0 -73.9684,0 m -11.6929,0 -73.9684,0 m -11.6929,0 0,0 m 342.6453,14.17303 -73.9684,0 m -11.6929,0 -73.9684,0 m -11.693,0 -73.9684,0 m -11.6929,0 -73.9684,0 m -11.6929,0 0,0"
       style="fill:none;stroke:#000000;stroke-width:0.35433072"
       inkscape:connector-curvature="0">
      <desc
         id="desc3395">Hinge cut parameters: actual(requested)
cut length: 20.88 mm (19.00 mm)
gap length: 3.30 mm (3.30 mm)
separation distance: 2.00 mm (2.00 mm)</desc>
    </path>
    <path
       id="path3516"
       d="m 1133.859,-10.631166 -29.5866,0 m -11.6929,0 -29.5866,0 m 70.8661,14.1732296 -29.5866,0 m -11.6929,0 -29.5866,0 m 70.8661,14.1732304 -29.5866,0 m -11.6929,0 -29.5866,0 m 70.8661,14.17323 -29.5866,0 m -11.6929,0 -29.5866,0 m 70.8661,14.17323 -29.5866,0 m -11.6929,0 -29.5866,0 m 70.8661,14.17322 -29.5866,0 m -11.6929,0 -29.5866,0 m 70.8661,14.17323 -29.5866,0 m -11.6929,0 -29.5866,0 m 70.8661,14.17323 -29.5866,0 m -11.6929,0 -29.5866,0 m 70.8661,14.173226 -29.5866,0 m -11.6929,0 -29.5866,0 m 70.8661,14.17323 -29.5866,0 m -11.6929,0 -29.5866,0 m 70.8661,14.17323 -29.5866,0 m -11.6929,0 -29.5866,0 m 70.8661,14.17323 -29.5866,0 m -11.6929,0 -29.5866,0 m 70.8661,14.17323 -29.5866,0 m -11.6929,0 -29.5866,0 m 70.8661,14.17323 -29.5866,0 m -11.6929,0 -29.5866,0 m 70.8661,14.17322 -29.5866,0 m -11.6929,0 -29.5866,0 m 70.8661,14.17323 -29.5866,0 m -11.6929,0 -29.5866,0 m 70.8661,14.17323 -29.5866,0 m -11.6929,0 -29.5866,0 m 70.8661,14.17323 -29.5866,0 m -11.6929,0 -29.5866,0 m 70.8661,14.17323 -29.5866,0 m -11.6929,0 -29.5866,0 m 70.8661,14.17323 -29.5866,0 m -11.6929,0 -29.5866,0 m 70.8661,14.17323 -29.5866,0 m -11.6929,0 -29.5866,0 m 70.8661,14.17323 -29.5866,0 m -11.6929,0 -29.5866,0 m 70.8661,14.17322 -29.5866,0 m -11.6929,0 -29.5866,0 m 70.8661,14.17323 -29.5866,0 m -11.6929,0 -29.5866,0 m 70.8661,14.17323 -29.5866,0 m -11.6929,0 -29.5866,0 m 70.8661,14.17323 -29.5866,0 m -11.6929,0 -29.5866,0 m 59.1732,-347.2440964 -47.4803,0 m 47.4803,14.1732204 -47.4803,0 m 47.4803,14.17323 -47.4803,0 m 47.4803,14.17323 -47.4803,0 m 47.4803,14.17323 -47.4803,0 m 47.4803,14.17323 -47.4803,0 m 47.4803,14.17323 -47.4803,0 m 47.4803,14.17323 -47.4803,0 m 47.4803,14.173226 -47.4803,0 m 47.4803,14.17322 -47.4803,0 m 47.4803,14.17323 -47.4803,0 m 47.4803,14.17323 -47.4803,0 m 47.4803,14.17323 -47.4803,0 m 47.4803,14.17323 -47.4803,0 m 47.4803,14.17323 -47.4803,0 m 47.4803,14.17323 -47.4803,0 m 47.4803,14.17323 -47.4803,0 m 47.4803,14.17322 -47.4803,0 m 47.4803,14.17323 -47.4803,0 m 47.4803,14.17323 -47.4803,0 m 47.4803,14.17323 -47.4803,0 m 47.4803,14.17323 -47.4803,0 m 47.4803,14.17323 -47.4803,0 m 47.4803,14.17323 -47.4803,0 m 47.4803,14.17323 -47.4803,0"
       style="fill:none;stroke:#000000;stroke-width:0.35433084"
       inkscape:connector-curvature="0">
      <desc
         id="desc3518">Hinge cut parameters: actual(requested)
cut length: 13.40 mm (19.00 mm)
gap length: 3.30 mm (3.30 mm)
separation distance: 2.00 mm (2.00 mm)</desc>
    </path>
  </g>
</svg>
