<?xml version="1.0" encoding="UTF-8" standalone="no"?>
<!-- Created with Inkscape (http://www.inkscape.org/) -->

<svg
   xmlns:dc="http://purl.org/dc/elements/1.1/"
   xmlns:cc="http://creativecommons.org/ns#"
   xmlns:rdf="http://www.w3.org/1999/02/22-rdf-syntax-ns#"
   xmlns:svg="http://www.w3.org/2000/svg"
   xmlns="http://www.w3.org/2000/svg"
   xmlns:sodipodi="http://sodipodi.sourceforge.net/DTD/sodipodi-0.dtd"
   xmlns:inkscape="http://www.inkscape.org/namespaces/inkscape"
   width="2979.9211"
   height="2104.7244"
   id="svg2"
   version="1.1"
   inkscape:version="0.48.4 r9939"
   sodipodi:docname="work.svg">
  <defs
     id="defs4" />
  <sodipodi:namedview
     id="base"
     pagecolor="#ffffff"
     bordercolor="#666666"
     borderopacity="1.0"
     inkscape:pageopacity="0.0"
     inkscape:pageshadow="2"
     inkscape:zoom="0.49497475"
     inkscape:cx="1340.2363"
     inkscape:cy="1649.7903"
     inkscape:document-units="mm"
     inkscape:current-layer="layer1"
     showgrid="true"
     units="mm"
     inkscape:showpageshadow="false"
     borderlayer="true"
     inkscape:window-width="1280"
     inkscape:window-height="962"
     inkscape:window-x="-8"
     inkscape:window-y="-8"
     inkscape:window-maximized="1"
     inkscape:snap-bbox="true"
     inkscape:snap-bbox-midpoints="true"
     inkscape:snap-bbox-edge-midpoints="false"
     inkscape:bbox-nodes="true"
     inkscape:bbox-paths="true"
     inkscape:snap-object-midpoints="true"
     inkscape:snap-midpoints="true"
     inkscape:snap-nodes="false"
     inkscape:snap-grids="true">
    <inkscape:grid
       type="xygrid"
       id="grid3754"
       empspacing="5"
       visible="true"
       enabled="true"
       snapvisiblegridlinesonly="true"
       units="mm"
       spacingx="10mm"
       spacingy="10mm" />
  </sodipodi:namedview>
  <metadata
     id="metadata7">
    <rdf:RDF>
      <cc:Work
         rdf:about="">
        <dc:format>image/svg+xml</dc:format>
        <dc:type
           rdf:resource="http://purl.org/dc/dcmitype/StillImage" />
        <dc:title></dc:title>
      </cc:Work>
    </rdf:RDF>
  </metadata>
  <g
     inkscape:label="Layer 1"
     inkscape:groupmode="layer"
     id="layer1"
     transform="translate(0,1052.3634)">
    <path
       style="fill:#00ff00;stroke:#000000;stroke-width:1"
       d="M 359.84375 64.71875 L 359.84375 773.375 L 1422.3438 773.375 L 2484.8438 773.375 L 2484.8438 64.71875 L 1422.3438 64.71875 L 359.84375 64.71875 z M 644.90625 140.28125 L 985.09375 140.28125 L 985.09375 296.84375 L 890 417.375 L 644.90625 416.65625 L 644.90625 140.28125 z M 1287.3438 216.59375 C 1315.303 216.59375 1337.9688 239.2594 1337.9688 267.21875 C 1337.9688 295.1781 1315.303 317.84375 1287.3438 317.84375 C 1259.3845 317.84375 1236.7188 295.1781 1236.7188 267.21875 C 1236.7188 239.2594 1259.3845 216.59375 1287.3438 216.59375 z M 1557.3438 216.59375 C 1585.303 216.59375 1607.9688 239.2594 1607.9688 267.21875 C 1607.9688 295.1781 1585.303 317.84375 1557.3438 317.84375 C 1529.3845 317.84375 1506.7188 295.1781 1506.7188 267.21875 C 1506.7188 239.2594 1529.3845 216.59375 1557.3438 216.59375 z M 1894.9375 239.09375 C 1922.8967 239.09375 1945.5625 261.7594 1945.5625 289.71875 C 1945.5625 317.6781 1922.8967 340.34375 1894.9375 340.34375 C 1866.9783 340.34375 1844.3125 317.6781 1844.3125 289.71875 C 1844.3125 261.7594 1866.9783 239.09375 1894.9375 239.09375 z M 2029.9375 239.09375 C 2057.8967 239.09375 2080.5625 261.7594 2080.5625 289.71875 C 2080.5625 317.6781 2057.8967 340.34375 2029.9375 340.34375 C 2001.9783 340.34375 1979.3125 317.6781 1979.3125 289.71875 C 1979.3125 261.7594 2001.9783 239.09375 2029.9375 239.09375 z M 1782.125 351.59375 C 1810.0842 351.59375 1832.75 374.2594 1832.75 402.21875 C 1832.75 430.1781 1810.0842 452.84375 1782.125 452.84375 C 1754.1658 452.84375 1731.5 430.1781 1731.5 402.21875 C 1731.5 374.2594 1754.1658 351.59375 1782.125 351.59375 z M 980.875 354.71875 C 1007.9737 354.71875 1029.9375 376.68256 1029.9375 403.78125 C 1029.9375 430.87994 1007.9737 452.84375 980.875 452.84375 C 953.77632 452.84375 931.8125 430.87994 931.8125 403.78125 C 931.8125 376.68256 953.77632 354.71875 980.875 354.71875 z M 1422.3438 554.09375 C 1450.303 554.09375 1472.9688 576.7594 1472.9688 604.71875 C 1472.9688 632.6781 1450.303 655.34375 1422.3438 655.34375 C 1394.3845 655.34375 1371.7188 632.6781 1371.7188 604.71875 C 1371.7188 576.7594 1394.3845 554.09375 1422.3438 554.09375 z "
       transform="translate(0,-1052.3634)"
       id="rect3032" />
  </g>
</svg>
