<?xml version="1.0" encoding="UTF-8" standalone="no"?>
<!-- Created with Inkscape (http://www.inkscape.org/) -->

<svg
   xmlns:dc="http://purl.org/dc/elements/1.1/"
   xmlns:cc="http://creativecommons.org/ns#"
   xmlns:rdf="http://www.w3.org/1999/02/22-rdf-syntax-ns#"
   xmlns:svg="http://www.w3.org/2000/svg"
   xmlns="http://www.w3.org/2000/svg"
   xmlns:sodipodi="http://sodipodi.sourceforge.net/DTD/sodipodi-0.dtd"
   xmlns:inkscape="http://www.inkscape.org/namespaces/inkscape"
   width="2979.9211"
   height="2104.7244"
   id="svg2"
   version="1.1"
   inkscape:version="0.48.4 r9939"
   sodipodi:docname="defendcp-metric.svg">
  <defs
     id="defs4" />
  <sodipodi:namedview
     id="base"
     pagecolor="#ffffff"
     bordercolor="#666666"
     borderopacity="1.0"
     inkscape:pageopacity="0.0"
     inkscape:pageshadow="2"
     inkscape:zoom="0.98994949"
     inkscape:cx="2028.8346"
     inkscape:cy="591.89418"
     inkscape:document-units="mm"
     inkscape:current-layer="layer1"
     showgrid="true"
     units="mm"
     inkscape:showpageshadow="false"
     borderlayer="true"
     inkscape:window-width="1280"
     inkscape:window-height="962"
     inkscape:window-x="-8"
     inkscape:window-y="-8"
     inkscape:window-maximized="1"
     inkscape:snap-bbox="true"
     inkscape:snap-bbox-midpoints="true"
     inkscape:snap-bbox-edge-midpoints="false"
     inkscape:bbox-nodes="true"
     inkscape:bbox-paths="true"
     inkscape:snap-object-midpoints="true"
     inkscape:snap-midpoints="true"
     inkscape:snap-nodes="true"
     inkscape:snap-grids="true">
    <inkscape:grid
       type="xygrid"
       id="grid3754"
       empspacing="5"
       visible="true"
       enabled="true"
       snapvisiblegridlinesonly="true"
       units="mm"
       spacingx="10mm"
       spacingy="10mm" />
  </sodipodi:namedview>
  <metadata
     id="metadata7">
    <rdf:RDF>
      <cc:Work
         rdf:about="">
        <dc:format>image/svg+xml</dc:format>
        <dc:type
           rdf:resource="http://purl.org/dc/dcmitype/StillImage" />
        <dc:title />
      </cc:Work>
    </rdf:RDF>
  </metadata>
  <g
     inkscape:label="Layer 1"
     inkscape:groupmode="layer"
     id="layer1"
     transform="translate(0,1052.3634)">
    <rect
       style="fill:#00ff00;stroke:#000000;stroke-width:1"
       id="rect3032"
       width="1062.4919"
       height="708.66144"
       x="359.85284"
       y="-987.63904" />
    <rect
       y="-987.63904"
       x="1422.3447"
       height="708.66144"
       width="1062.4919"
       id="rect3034"
       style="fill:#00ff00;stroke:#000000;stroke-width:1" />
    <path
       sodipodi:type="arc"
       style="fill:#ff0000;stroke:#000000;stroke-width:0.42666894;stroke-miterlimit:4;stroke-opacity:1;stroke-dasharray:none"
       id="path3756"
       sodipodi:cx="280"
       sodipodi:cy="1104.7244"
       sodipodi:rx="40"
       sodipodi:ry="40"
       d="m 320,1104.7244 c 0,22.0914 -17.90861,40 -40,40 -22.09139,0 -40,-17.9086 -40,-40 0,-22.0914 17.90861,-40 40,-40 22.09139,0 40,17.9086 40,40 z"
       transform="matrix(1.2656153,0,0,1.2656215,205.62772,-1296.3474)" />
    <path
       transform="matrix(1.2656153,0,0,1.2656215,351.76449,-1293.6699)"
       d="m 320,1104.7244 c 0,22.0914 -17.90861,40 -40,40 -22.09139,0 -40,-17.9086 -40,-40 0,-22.0914 17.90861,-40 40,-40 22.09139,0 40,17.9086 40,40 z"
       sodipodi:ry="40"
       sodipodi:rx="40"
       sodipodi:cy="1104.7244"
       sodipodi:cx="280"
       id="path3758"
       style="fill:#ff0000;stroke:#000000;stroke-width:0.42666894;stroke-miterlimit:4;stroke-opacity:1;stroke-dasharray:none"
       sodipodi:type="arc" />
    <rect
       style="fill:none;stroke:#000000;stroke-width:0.54000026;stroke-miterlimit:4;stroke-opacity:1;stroke-dasharray:none"
       id="rect2992"
       width="472.5"
       height="269.9946"
       x="320"
       y="-987.63904" />
    <rect
       y="-987.63898"
       x="1782.1134"
       height="337.49438"
       width="742.80896"
       id="rect2996"
       style="fill:none;stroke:#000000;stroke-width:0.54000026;stroke-miterlimit:4;stroke-opacity:1;stroke-dasharray:none" />
    <rect
       style="fill:none;stroke:#000000;stroke-width:0.54000026;stroke-miterlimit:4;stroke-opacity:1;stroke-dasharray:none"
       id="rect2998"
       width="630.00006"
       height="224.9948"
       x="1894.9224"
       y="-987.63898" />
    <rect
       y="-987.63898"
       x="2029.9222"
       height="224.9948"
       width="495.00015"
       id="rect3000"
       style="fill:none;stroke:#000000;stroke-width:0.54000026;stroke-miterlimit:4;stroke-opacity:1;stroke-dasharray:none" />
    <rect
       style="fill:none;stroke:#000000;stroke-width:0.54000026;stroke-miterlimit:4;stroke-opacity:1;stroke-dasharray:none"
       id="rect3012"
       width="382.49991"
       height="652.49396"
       x="-650.13892"
       y="-972.41638"
       transform="matrix(0,1,-1,0,0,0)" />
    <rect
       transform="matrix(0,1,-1,0,0,0)"
       y="-837.49915"
       x="-830.1463"
       height="44.999168"
       width="112.50184"
       id="rect3018"
       style="fill:#ff00ff;stroke:#000000;stroke-width:0.54000026;stroke-miterlimit:4;stroke-opacity:1;stroke-dasharray:none" />
    <path
       transform="matrix(1.2656153,0,0,1.2656215,618.0441,-2048.3018)"
       d="m 320,1104.7244 c 0,22.0914 -17.90861,40 -40,40 -22.09139,0 -40,-17.9086 -40,-40 0,-22.0914 17.90861,-40 40,-40 22.09139,0 40,17.9086 40,40 z"
       sodipodi:ry="40"
       sodipodi:rx="40"
       sodipodi:cy="1104.7244"
       sodipodi:cx="280"
       id="path3020"
       style="fill:#00ffff;stroke:#000000;stroke-width:0.42666894;stroke-miterlimit:4;stroke-opacity:1;stroke-dasharray:none"
       sodipodi:type="arc" />
    <path
       transform="matrix(1.2656153,0,0,1.2656215,1067.9726,-1845.8019)"
       d="m 320,1104.7244 c 0,22.0914 -17.90861,40 -40,40 -22.09139,0 -40,-17.9086 -40,-40 0,-22.0914 17.90861,-40 40,-40 22.09139,0 40,17.9086 40,40 z"
       sodipodi:ry="40"
       sodipodi:rx="40"
       sodipodi:cy="1104.7244"
       sodipodi:cx="280"
       id="path3022"
       style="fill:#00ffff;stroke:#000000;stroke-width:0.42666894;stroke-miterlimit:4;stroke-opacity:1;stroke-dasharray:none"
       sodipodi:type="arc" />
    <rect
       style="fill:none;stroke:#000000;stroke-width:0.54000026;stroke-miterlimit:4;stroke-opacity:1;stroke-dasharray:none"
       id="rect3024"
       width="202.50015"
       height="134.99565"
       x="-987.63904"
       y="1287.3492"
       transform="matrix(0,1,1,0,0,0)" />
    <path
       sodipodi:type="arc"
       style="fill:#00ffff;stroke:#000000;stroke-width:0.42666894;stroke-miterlimit:4;stroke-opacity:1;stroke-dasharray:none"
       id="path3028"
       sodipodi:cx="280"
       sodipodi:cy="1104.7244"
       sodipodi:rx="40"
       sodipodi:ry="40"
       d="m 320,1104.7244 c 0,22.0914 -17.90861,40 -40,40 -22.09139,0 -40,-17.9086 -40,-40 0,-22.0914 17.90861,-40 40,-40 22.09139,0 40,17.9086 40,40 z"
       transform="matrix(-1.2656153,0,0,1.2656215,1641.7215,-2183.3018)" />
    <path
       sodipodi:type="arc"
       style="fill:#00ffff;stroke:#000000;stroke-width:0.42666894;stroke-miterlimit:4;stroke-opacity:1;stroke-dasharray:none"
       id="path3004"
       sodipodi:cx="280"
       sodipodi:cy="1104.7244"
       sodipodi:rx="40"
       sodipodi:ry="40"
       d="m 320,1104.7244 c 0,22.0914 -17.90861,40 -40,40 -22.09139,0 -40,-17.9086 -40,-40 0,-22.0914 17.90861,-40 40,-40 22.09139,0 40,17.9086 40,40 z"
       transform="matrix(1.2656153,0,0,1.2656215,1427.7411,-2048.3075)" />
    <text
       xml:space="preserve"
       style="font-size:16px;font-style:normal;font-variant:normal;font-weight:normal;font-stretch:normal;line-height:125%;letter-spacing:0px;word-spacing:0px;fill:#000000;fill-opacity:1;stroke:none;font-family:DejaVu Sans Mono;-inkscape-font-specification:DejaVu Sans Mono"
       x="1741.5029"
       y="-558.83234"
       id="text3006"
       sodipodi:linespacing="125%"><tspan
         sodipodi:role="line"
         id="tspan3008"
         x="1741.5029"
         y="-558.83234">Smart Bomb</tspan></text>
    <path
       transform="matrix(1.2656153,0,0,1.2656215,1540.5501,-2160.8071)"
       d="m 320,1104.7244 c 0,22.0914 -17.90861,40 -40,40 -22.09139,0 -40,-17.9086 -40,-40 0,-22.0914 17.90861,-40 40,-40 22.09139,0 40,17.9086 40,40 z"
       sodipodi:ry="40"
       sodipodi:rx="40"
       sodipodi:cy="1104.7244"
       sodipodi:cx="280"
       id="path3010"
       style="fill:#00ffff;stroke:#000000;stroke-width:0.42666894;stroke-miterlimit:4;stroke-opacity:1;stroke-dasharray:none"
       sodipodi:type="arc" />
    <path
       sodipodi:type="arc"
       style="fill:#00ffff;stroke:#000000;stroke-width:0.42666894;stroke-miterlimit:4;stroke-opacity:1;stroke-dasharray:none"
       id="path3012"
       sodipodi:cx="280"
       sodipodi:cy="1104.7244"
       sodipodi:rx="40"
       sodipodi:ry="40"
       d="m 320,1104.7244 c 0,22.0914 -17.90861,40 -40,40 -22.09139,0 -40,-17.9086 -40,-40 0,-22.0914 17.90861,-40 40,-40 22.09139,0 40,17.9086 40,40 z"
       transform="matrix(1.2656153,0,0,1.2656215,1675.55,-2160.8071)" />
    <rect
       transform="matrix(0,1,-1,0,0,0)"
       y="-1557.3405"
       x="-987.63904"
       height="134.99565"
       width="202.50015"
       id="rect3014"
       style="fill:none;stroke:#000000;stroke-width:0.54000026;stroke-miterlimit:4;stroke-opacity:1;stroke-dasharray:none" />
    <path
       transform="matrix(1.2656153,0,0,1.2656215,1202.9683,-2183.3018)"
       d="m 320,1104.7244 c 0,22.0914 -17.90861,40 -40,40 -22.09139,0 -40,-17.9086 -40,-40 0,-22.0914 17.90861,-40 40,-40 22.09139,0 40,17.9086 40,40 z"
       sodipodi:ry="40"
       sodipodi:rx="40"
       sodipodi:cy="1104.7244"
       sodipodi:cx="280"
       id="path3016"
       style="fill:#00ffff;stroke:#000000;stroke-width:0.42666894;stroke-miterlimit:4;stroke-opacity:1;stroke-dasharray:none"
       sodipodi:type="arc" />
    <text
       sodipodi:linespacing="125%"
       id="text3018"
       y="-680.84326"
       x="1252.7816"
       style="font-size:16px;font-style:normal;font-variant:normal;font-weight:normal;font-stretch:normal;line-height:125%;letter-spacing:0px;word-spacing:0px;fill:#000000;fill-opacity:1;stroke:none;font-family:DejaVu Sans Mono;-inkscape-font-specification:DejaVu Sans Mono"
       xml:space="preserve"><tspan
         y="-680.84326"
         x="1252.7816"
         id="tspan3020"
         sodipodi:role="line">Player 1</tspan></text>
    <text
       xml:space="preserve"
       style="font-size:16px;font-style:normal;font-variant:normal;font-weight:normal;font-stretch:normal;line-height:125%;letter-spacing:0px;word-spacing:0px;fill:#000000;fill-opacity:1;stroke:none;font-family:DejaVu Sans Mono;-inkscape-font-specification:DejaVu Sans Mono"
       x="1518.4958"
       y="-686.55756"
       id="text3022"
       sodipodi:linespacing="125%"><tspan
         sodipodi:role="line"
         x="1518.4958"
         y="-686.55756"
         id="tspan3026">Player 2</tspan></text>
    <rect
       style="fill:none;stroke:#000000;stroke-width:0.54000002;stroke-miterlimit:4;stroke-opacity:1;stroke-dasharray:none"
       id="rect3030"
       width="90"
       height="180"
       x="1332.3448"
       y="-447.63898" />
    <text
       xml:space="preserve"
       style="font-size:16px;font-style:normal;font-variant:normal;font-weight:normal;font-stretch:normal;line-height:125%;letter-spacing:0px;word-spacing:0px;fill:#000000;fill-opacity:1;stroke:none;font-family:DejaVu Sans Mono;-inkscape-font-specification:DejaVu Sans Mono"
       x="947.11914"
       y="-587.27185"
       id="text3032"
       sodipodi:linespacing="125%"><tspan
         sodipodi:role="line"
         id="tspan3034"
         x="947.11914"
         y="-587.27185">Reverse</tspan></text>
    <text
       sodipodi:linespacing="125%"
       id="text3036"
       y="-385.35007"
       x="1471.8523"
       style="font-size:16px;font-style:normal;font-variant:normal;font-weight:normal;font-stretch:normal;line-height:125%;letter-spacing:0px;word-spacing:0px;fill:#000000;fill-opacity:1;stroke:none;font-family:DejaVu Sans Mono;-inkscape-font-specification:DejaVu Sans Mono"
       xml:space="preserve"><tspan
         y="-385.35007"
         x="1471.8523"
         id="tspan3038"
         sodipodi:role="line">Hyperspace</tspan></text>
    <path
       sodipodi:type="arc"
       style="fill:#ffff00;fill-opacity:1;stroke:#000000;stroke-opacity:1"
       id="path3036"
       sodipodi:cx="973.57141"
       sodipodi:cy="274.36722"
       sodipodi:rx="26.428572"
       sodipodi:ry="26.071428"
       d="m 999.99998,274.36722 c 0,14.39885 -11.83247,26.07143 -26.42857,26.07143 -14.5961,0 -26.42857,-11.67258 -26.42857,-26.07143 0,-14.39885 11.83247,-26.07143 26.42857,-26.07143 14.5961,0 26.42857,11.67258 26.42857,26.07143 z"
       transform="translate(-158.57185,-1048.2626)" />
    <rect
       style="fill:none;stroke:#000000;stroke-opacity:1"
       id="rect3038"
       width="230.31496"
       height="230.31496"
       x="699.8421"
       y="-889.05286" />
    <rect
       style="fill:none;stroke:#000000;stroke-width:1;stroke-opacity:1"
       id="rect3040"
       width="340.15744"
       height="276.37796"
       x="644.92084"
       y="-912.08435" />
    <path
       style="fill:none;stroke:#000000;stroke-width:1;stroke-opacity:1"
       d="m 1594.4882,-12.967098 708.6616,-110.152822 0,325.08733 -708.6616,0 z"
       id="rect3042"
       inkscape:connector-curvature="0"
       sodipodi:nodetypes="ccccc" />
    <rect
       style="fill:none;stroke:#000000;stroke-opacity:1"
       id="rect3045"
       width="576"
       height="90"
       x="1594.4882"
       y="-102.91688" />
    <text
       xml:space="preserve"
       style="font-size:16px;font-style:normal;font-variant:normal;font-weight:normal;font-stretch:normal;line-height:125%;letter-spacing:0px;word-spacing:0px;fill:#000000;fill-opacity:1;stroke:none;font-family:DejaVu Sans Mono;-inkscape-font-specification:DejaVu Sans Mono"
       x="1631.8523"
       y="-65.350067"
       id="text3047"
       sodipodi:linespacing="125%"><tspan
         sodipodi:role="line"
         id="tspan3049"
         x="1631.8523"
         y="-65.350067">1:6.4 angle</tspan></text>
    <rect
       style="opacity:0.98717951;fill:#00ffff;fill-opacity:1;fill-rule:nonzero;stroke:#00007f;stroke-width:1;stroke-linecap:butt;stroke-linejoin:miter;stroke-miterlimit:4;stroke-opacity:1;stroke-dasharray:none;stroke-dashoffset:0"
       id="rect3020"
       width="36.36549"
       height="108.08632"
       x="2338.5032"
       y="934.96771"
       transform="translate(0,-1052.3634)" />
    <path
       sodipodi:nodetypes="ccccc"
       inkscape:connector-curvature="0"
       id="path3023"
       d="m 1594.4882,343.69955 708.6614,-106.29921 0,283.46456 -708.6614,0 z"
       style="fill:none;stroke:#000000;stroke-width:1;stroke-opacity:1" />
  </g>
</svg>
