<?xml version="1.0" encoding="UTF-8" standalone="no"?>
<!-- Created with Inkscape (http://www.inkscape.org/) -->

<svg
   xmlns:dc="http://purl.org/dc/elements/1.1/"
   xmlns:cc="http://creativecommons.org/ns#"
   xmlns:rdf="http://www.w3.org/1999/02/22-rdf-syntax-ns#"
   xmlns:svg="http://www.w3.org/2000/svg"
   xmlns="http://www.w3.org/2000/svg"
   xmlns:sodipodi="http://sodipodi.sourceforge.net/DTD/sodipodi-0.dtd"
   xmlns:inkscape="http://www.inkscape.org/namespaces/inkscape"
   sodipodi:docname="New document 3"
   inkscape:version="0.48.4 r9939"
   version="1.1"
   id="svg2"
   height="2979.9211"
   width="4212.9922">
  <sodipodi:namedview
     id="base"
     pagecolor="#ffffff"
     bordercolor="#666666"
     borderopacity="1.0"
     inkscape:pageopacity="0.0"
     inkscape:pageshadow="2"
     inkscape:zoom="0.35"
     inkscape:cx="1898.9235"
     inkscape:cy="1785.6022"
     inkscape:document-units="mm"
     inkscape:current-layer="svg2"
     showgrid="true"
     units="mm"
     width="1200mm"
     inkscape:window-width="1280"
     inkscape:window-height="962"
     inkscape:window-x="-8"
     inkscape:window-y="-8"
     inkscape:window-maximized="1">
    <inkscape:grid
       spacingy="1mm"
       spacingx="1mm"
       units="mm"
       snapvisiblegridlinesonly="true"
       enabled="true"
       visible="true"
       empspacing="5"
       id="grid2985"
       type="xygrid" />
  </sodipodi:namedview>
  <title
     id="title2987">Laser A0 Template</title>
  <defs
     id="defs4" />
  <metadata
     id="metadata7">
    <rdf:RDF>
      <cc:Work
         rdf:about="">
        <dc:format>image/svg+xml</dc:format>
        <dc:type
           rdf:resource="http://purl.org/dc/dcmitype/StillImage" />
        <dc:title>Laser A0 Template</dc:title>
      </cc:Work>
    </rdf:RDF>
  </metadata>
  <g
     transform="translate(0,1927.5603)"
     id="layer1"
     inkscape:groupmode="layer"
     inkscape:label="Layer 1" />
  <g
     id="g4095"
     inkscape:groupmode="layer"
     inkscape:label="newlayer" />
  <path
     id="path4097"
     d="M 184.251968503,1275.59055118 L 222.677165348,1275.59055118 L 222.677165348,1264.96062992 L 258.818897642,1264.96062992 L 258.818897642,1275.59055118 L 296.889763773,1275.59055118 L 296.889763773,1264.96062992 L 333.031496067,1264.96062992 L 333.031496067,1275.59055118 L 371.102362198,1275.59055118 L 371.102362198,1264.96062992 L 407.244094492,1264.96062992 L 407.244094492,1275.59055118 L 445.314960623,1275.59055118 L 445.314960623,1264.96062992 L 481.456692917,1264.96062992 L 481.456692917,1275.59055118 L 519.527559048,1275.59055118 L 519.527559048,1264.96062992 L 555.669291342,1264.96062992 L 555.669291342,1275.59055118 L 593.740157473,1275.59055118 L 593.740157473,1264.96062992 L 629.881889767,1264.96062992 L 629.881889767,1275.59055118 L 667.952755898,1275.59055118 L 667.952755898,1264.96062992 L 704.094488191,1264.96062992 L 704.094488191,1275.59055118 L 742.165354322,1275.59055118 L 742.165354322,1264.96062992 L 778.307086616,1264.96062992 L 778.307086616,1275.59055118 L 816.377952747,1275.59055118 L 816.377952747,1264.96062992 L 852.519685041,1264.96062992 L 852.519685041,1275.59055118 L 890.590551172,1275.59055118 L 890.590551172,1264.96062992 L 926.732283466,1264.96062992 L 926.732283466,1275.59055118 L 964.803149597,1275.59055118 L 964.803149597,1264.96062992 L 1000.94488189,1264.96062992 L 1000.94488189,1275.59055118 L 1039.01574802,1275.59055118 L 1039.01574802,1264.96062992 L 1075.15748032,1264.96062992 L 1075.15748032,1275.59055118 L 1113.22834645,1275.59055118 L 1113.22834645,1264.96062992 L 1149.37007874,1264.96062992 L 1149.37007874,1275.59055118 L 1187.44094487,1275.59055118 L 1187.44094487,1264.96062992 L 1223.58267717,1264.96062992 L 1223.58267717,1275.59055118 L 1261.6535433,1275.59055118 L 1261.6535433,1264.96062992 L 1297.79527559,1264.96062992 L 1297.79527559,1275.59055118 L 1335.86614172,1275.59055118 L 1335.86614172,1264.96062992 L 1372.00787402,1264.96062992 L 1372.00787402,1275.59055118 L 1410.07874015,1275.59055118 L 1410.07874015,1264.96062992 L 1446.22047244,1264.96062992 L 1446.22047244,1275.59055118 L 1484.64566929,1275.59055118 "
     style="stroke:#000000;fill:none"
     inkscape:label="part" />
  <path
     id="path4099"
     d="M 1484.64566929,1275.59055118 L 1484.64566929,1329.09448819 L 1474.01574803,1329.09448819 L 1474.01574803,1363.81889763 L 1484.64566929,1363.81889763 L 1484.64566929,1417.32283464 "
     style="stroke:#000000;fill:none"
     inkscape:label="part" />
  <path
     id="path4101"
     d="M 1484.64566929,1417.32283464 L 1446.22047244,1417.32283464 L 1446.22047244,1427.9527559 L 1410.07874015,1427.9527559 L 1410.07874015,1417.32283464 L 1372.00787402,1417.32283464 L 1372.00787402,1427.9527559 L 1335.86614172,1427.9527559 L 1335.86614172,1417.32283464 L 1297.79527559,1417.32283464 L 1297.79527559,1427.9527559 L 1261.6535433,1427.9527559 L 1261.6535433,1417.32283464 L 1223.58267717,1417.32283464 L 1223.58267717,1427.9527559 L 1187.44094487,1427.9527559 L 1187.44094487,1417.32283464 L 1149.37007874,1417.32283464 L 1149.37007874,1427.9527559 L 1113.22834645,1427.9527559 L 1113.22834645,1417.32283464 L 1075.15748032,1417.32283464 L 1075.15748032,1427.9527559 L 1039.01574802,1427.9527559 L 1039.01574802,1417.32283464 L 1000.94488189,1417.32283464 L 1000.94488189,1427.9527559 L 964.803149597,1427.9527559 L 964.803149597,1417.32283464 L 926.732283466,1417.32283464 L 926.732283466,1427.9527559 L 890.590551172,1427.9527559 L 890.590551172,1417.32283464 L 852.519685041,1417.32283464 L 852.519685041,1427.9527559 L 816.377952747,1427.9527559 L 816.377952747,1417.32283464 L 778.307086616,1417.32283464 L 778.307086616,1427.9527559 L 742.165354322,1427.9527559 L 742.165354322,1417.32283464 L 704.094488191,1417.32283464 L 704.094488191,1427.9527559 L 667.952755898,1427.9527559 L 667.952755898,1417.32283464 L 629.881889767,1417.32283464 L 629.881889767,1427.9527559 L 593.740157473,1427.9527559 L 593.740157473,1417.32283464 L 555.669291342,1417.32283464 L 555.669291342,1427.9527559 L 519.527559048,1427.9527559 L 519.527559048,1417.32283464 L 481.456692917,1417.32283464 L 481.456692917,1427.9527559 L 445.314960623,1427.9527559 L 445.314960623,1417.32283464 L 407.244094492,1417.32283464 L 407.244094492,1427.9527559 L 371.102362198,1427.9527559 L 371.102362198,1417.32283464 L 333.031496067,1417.32283464 L 333.031496067,1427.9527559 L 296.889763773,1427.9527559 L 296.889763773,1417.32283464 L 258.818897642,1417.32283464 L 258.818897642,1427.9527559 L 222.677165348,1427.9527559 L 222.677165348,1417.32283464 L 184.251968503,1417.32283464 "
     style="stroke:#000000;fill:none"
     inkscape:label="part" />
  <path
     id="path4103"
     d="M 184.251968503,1417.32283464 L 184.251968503,1363.81889763 L 194.881889763,1363.81889763 L 194.881889763,1329.09448819 L 184.251968503,1329.09448819 L 184.251968503,1275.59055118 "
     style="stroke:#000000;fill:none"
     inkscape:label="part" />
  <path
     id="path4105"
     d="M 21.2598425196,194.881889763 L 74.0551181047,194.881889763 L 74.0551181047,184.251968503 L 110.196850399,184.251968503 L 110.196850399,194.881889763 L 162.992125984,194.881889763 "
     style="stroke:#000000;fill:none"
     inkscape:label="part" />
  <path
     id="path4107"
     d="M 162.992125984,194.881889763 L 162.992125984,222.165354325 L 173.622047243,222.165354325 L 173.622047243,258.307086618 L 162.992125984,258.307086618 L 162.992125984,295.866141726 L 173.622047243,295.866141726 L 173.622047243,332.00787402 L 162.992125984,332.00787402 L 162.992125984,369.566929127 L 173.622047243,369.566929127 L 173.622047243,405.708661421 L 162.992125984,405.708661421 L 162.992125984,443.267716528 L 173.622047243,443.267716528 L 173.622047243,479.409448822 L 162.992125984,479.409448822 L 162.992125984,516.96850393 L 173.622047243,516.96850393 L 173.622047243,553.110236224 L 162.992125984,553.110236224 L 162.992125984,590.669291331 L 173.622047243,590.669291331 L 173.622047243,626.811023625 L 162.992125984,626.811023625 L 162.992125984,664.370078732 L 173.622047243,664.370078732 L 173.622047243,700.511811026 L 162.992125984,700.511811026 L 162.992125984,738.070866134 L 173.622047243,738.070866134 L 173.622047243,774.212598427 L 162.992125984,774.212598427 L 162.992125984,811.771653535 L 173.622047243,811.771653535 L 173.622047243,847.913385829 L 162.992125984,847.913385829 L 162.992125984,885.472440936 L 173.622047243,885.472440936 L 173.622047243,921.61417323 L 162.992125984,921.61417323 L 162.992125984,959.173228337 L 173.622047243,959.173228337 L 173.622047243,995.314960631 L 162.992125984,995.314960631 L 162.992125984,1032.87401574 L 173.622047243,1032.87401574 L 173.622047243,1069.01574803 L 162.992125984,1069.01574803 L 162.992125984,1106.57480314 L 173.622047243,1106.57480314 L 173.622047243,1142.71653543 L 162.992125984,1142.71653543 L 162.992125984,1180.27559054 L 173.622047243,1180.27559054 L 173.622047243,1216.41732284 L 162.992125984,1216.41732284 L 162.992125984,1243.7007874 "
     style="stroke:#000000;fill:none"
     inkscape:label="part" />
  <path
     id="path4109"
     d="M 162.992125984,1243.7007874 L 110.196850399,1243.7007874 L 110.196850399,1254.33070866 L 74.0551181047,1254.33070866 L 74.0551181047,1243.7007874 L 21.2598425196,1243.7007874 "
     style="stroke:#000000;fill:none"
     inkscape:label="part" />
  <path
     id="path4111"
     d="M 21.2598425196,1243.7007874 L 21.2598425196,1216.41732284 L 10.6299212598,1216.41732284 L 10.6299212598,1180.27559054 L 21.2598425196,1180.27559054 L 21.2598425196,1142.71653543 L 10.6299212598,1142.71653543 L 10.6299212598,1106.57480314 L 21.2598425196,1106.57480314 L 21.2598425196,1069.01574803 L 10.6299212598,1069.01574803 L 10.6299212598,1032.87401574 L 21.2598425196,1032.87401574 L 21.2598425196,995.314960631 L 10.6299212598,995.314960631 L 10.6299212598,959.173228337 L 21.2598425196,959.173228337 L 21.2598425196,921.61417323 L 10.6299212598,921.61417323 L 10.6299212598,885.472440936 L 21.2598425196,885.472440936 L 21.2598425196,847.913385829 L 10.6299212598,847.913385829 L 10.6299212598,811.771653535 L 21.2598425196,811.771653535 L 21.2598425196,774.212598427 L 10.6299212598,774.212598427 L 10.6299212598,738.070866133 L 21.2598425196,738.070866133 L 21.2598425196,700.511811026 L 10.6299212598,700.511811026 L 10.6299212598,664.370078732 L 21.2598425196,664.370078732 L 21.2598425196,626.811023625 L 10.6299212598,626.811023625 L 10.6299212598,590.669291331 L 21.2598425196,590.669291331 L 21.2598425196,553.110236224 L 10.6299212598,553.110236224 L 10.6299212598,516.96850393 L 21.2598425196,516.96850393 L 21.2598425196,479.409448822 L 10.6299212598,479.409448822 L 10.6299212598,443.267716528 L 21.2598425196,443.267716528 L 21.2598425196,405.708661421 L 10.6299212598,405.708661421 L 10.6299212598,369.566929127 L 21.2598425196,369.566929127 L 21.2598425196,332.00787402 L 10.6299212598,332.00787402 L 10.6299212598,295.866141726 L 21.2598425196,295.866141726 L 21.2598425196,258.307086618 L 10.6299212598,258.307086618 L 10.6299212598,222.165354325 L 21.2598425196,222.165354325 L 21.2598425196,194.881889763 "
     style="stroke:#000000;fill:none"
     inkscape:label="part" />
  <path
     id="path4113"
     d="M 184.251968503,184.251968503 L 223.385826776,184.251968503 L 223.385826776,194.881889763 L 258.110236214,194.881889763 L 258.110236214,184.251968503 L 297.598425201,184.251968503 L 297.598425201,194.881889763 L 332.322834639,194.881889763 L 332.322834639,184.251968503 L 371.811023626,184.251968503 L 371.811023626,194.881889763 L 406.535433064,194.881889763 L 406.535433064,184.251968503 L 446.023622051,184.251968503 L 446.023622051,194.881889763 L 480.748031489,194.881889763 L 480.748031489,184.251968503 L 520.236220476,184.251968503 L 520.236220476,194.881889763 L 554.960629914,194.881889763 L 554.960629914,184.251968503 L 594.448818901,184.251968503 L 594.448818901,194.881889763 L 629.173228339,194.881889763 L 629.173228339,184.251968503 L 668.661417325,184.251968503 L 668.661417325,194.881889763 L 703.385826764,194.881889763 L 703.385826764,184.251968503 L 742.87401575,184.251968503 L 742.87401575,194.881889763 L 777.598425188,194.881889763 L 777.598425188,184.251968503 L 817.086614175,184.251968503 L 817.086614175,194.881889763 L 851.811023613,194.881889763 L 851.811023613,184.251968503 L 891.2992126,184.251968503 L 891.2992126,194.881889763 L 926.023622038,194.881889763 L 926.023622038,184.251968503 L 965.511811025,184.251968503 L 965.511811025,194.881889763 L 1000.23622046,194.881889763 L 1000.23622046,184.251968503 L 1039.72440945,184.251968503 L 1039.72440945,194.881889763 L 1074.44881889,194.881889763 L 1074.44881889,184.251968503 L 1113.93700787,184.251968503 L 1113.93700787,194.881889763 L 1148.66141731,194.881889763 L 1148.66141731,184.251968503 L 1188.1496063,184.251968503 L 1188.1496063,194.881889763 L 1222.87401574,194.881889763 L 1222.87401574,184.251968503 L 1262.36220472,184.251968503 L 1262.36220472,194.881889763 L 1297.08661416,194.881889763 L 1297.08661416,184.251968503 L 1336.57480315,184.251968503 L 1336.57480315,194.881889763 L 1371.29921259,194.881889763 L 1371.29921259,184.251968503 L 1410.78740157,184.251968503 L 1410.78740157,194.881889763 L 1445.51181101,194.881889763 L 1445.51181101,184.251968503 L 1484.64566929,184.251968503 "
     style="stroke:#000000;fill:none"
     inkscape:label="part" />
  <path
     id="path4115"
     d="M 1484.64566929,184.251968503 L 1484.64566929,222.874015752 L 1474.01574803,222.874015752 L 1474.01574803,257.598425191 L 1484.64566929,257.598425191 L 1484.64566929,296.574803154 L 1474.01574803,296.574803154 L 1474.01574803,331.299212592 L 1484.64566929,331.299212592 L 1484.64566929,370.275590555 L 1474.01574803,370.275590555 L 1474.01574803,404.999999993 L 1484.64566929,404.999999993 L 1484.64566929,443.976377956 L 1474.01574803,443.976377956 L 1474.01574803,478.700787394 L 1484.64566929,478.700787394 L 1484.64566929,517.677165358 L 1474.01574803,517.677165358 L 1474.01574803,552.401574796 L 1484.64566929,552.401574796 L 1484.64566929,591.377952759 L 1474.01574803,591.377952759 L 1474.01574803,626.102362197 L 1484.64566929,626.102362197 L 1484.64566929,665.07874016 L 1474.01574803,665.07874016 L 1474.01574803,699.803149598 L 1484.64566929,699.803149598 L 1484.64566929,738.779527561 L 1474.01574803,738.779527561 L 1474.01574803,773.503937 L 1484.64566929,773.503937 L 1484.64566929,812.480314963 L 1474.01574803,812.480314963 L 1474.01574803,847.204724401 L 1484.64566929,847.204724401 L 1484.64566929,886.181102364 L 1474.01574803,886.181102364 L 1474.01574803,920.905511802 L 1484.64566929,920.905511802 L 1484.64566929,959.881889765 L 1474.01574803,959.881889765 L 1474.01574803,994.606299203 L 1484.64566929,994.606299203 L 1484.64566929,1033.58267717 L 1474.01574803,1033.58267717 L 1474.01574803,1068.3070866 L 1484.64566929,1068.3070866 L 1484.64566929,1107.28346457 L 1474.01574803,1107.28346457 L 1474.01574803,1142.00787401 L 1484.64566929,1142.00787401 L 1484.64566929,1180.98425197 L 1474.01574803,1180.98425197 L 1474.01574803,1215.70866141 L 1484.64566929,1215.70866141 L 1484.64566929,1254.33070866 "
     style="stroke:#000000;fill:none"
     inkscape:label="part" />
  <path
     id="path4117"
     d="M 1484.64566929,1254.33070866 L 1445.51181101,1254.33070866 L 1445.51181101,1243.7007874 L 1410.78740157,1243.7007874 L 1410.78740157,1254.33070866 L 1371.29921259,1254.33070866 L 1371.29921259,1243.7007874 L 1336.57480315,1243.7007874 L 1336.57480315,1254.33070866 L 1297.08661416,1254.33070866 L 1297.08661416,1243.7007874 L 1262.36220472,1243.7007874 L 1262.36220472,1254.33070866 L 1222.87401574,1254.33070866 L 1222.87401574,1243.7007874 L 1188.1496063,1243.7007874 L 1188.1496063,1254.33070866 L 1148.66141731,1254.33070866 L 1148.66141731,1243.7007874 L 1113.93700787,1243.7007874 L 1113.93700787,1254.33070866 L 1074.44881889,1254.33070866 L 1074.44881889,1243.7007874 L 1039.72440945,1243.7007874 L 1039.72440945,1254.33070866 L 1000.23622046,1254.33070866 L 1000.23622046,1243.7007874 L 965.511811025,1243.7007874 L 965.511811025,1254.33070866 L 926.023622038,1254.33070866 L 926.023622038,1243.7007874 L 891.2992126,1243.7007874 L 891.2992126,1254.33070866 L 851.811023613,1254.33070866 L 851.811023613,1243.7007874 L 817.086614175,1243.7007874 L 817.086614175,1254.33070866 L 777.598425188,1254.33070866 L 777.598425188,1243.7007874 L 742.87401575,1243.7007874 L 742.87401575,1254.33070866 L 703.385826764,1254.33070866 L 703.385826764,1243.7007874 L 668.661417325,1243.7007874 L 668.661417325,1254.33070866 L 629.173228339,1254.33070866 L 629.173228339,1243.7007874 L 594.448818901,1243.7007874 L 594.448818901,1254.33070866 L 554.960629914,1254.33070866 L 554.960629914,1243.7007874 L 520.236220476,1243.7007874 L 520.236220476,1254.33070866 L 480.748031489,1254.33070866 L 480.748031489,1243.7007874 L 446.023622051,1243.7007874 L 446.023622051,1254.33070866 L 406.535433064,1254.33070866 L 406.535433064,1243.7007874 L 371.811023626,1243.7007874 L 371.811023626,1254.33070866 L 332.322834639,1254.33070866 L 332.322834639,1243.7007874 L 297.598425201,1243.7007874 L 297.598425201,1254.33070866 L 258.110236214,1254.33070866 L 258.110236214,1243.7007874 L 223.385826776,1243.7007874 L 223.385826776,1254.33070866 L 184.251968503,1254.33070866 "
     style="stroke:#000000;fill:none"
     inkscape:label="part" />
  <path
     id="path4119"
     d="M 184.251968503,1254.33070866 L 184.251968503,1215.70866141 L 194.881889763,1215.70866141 L 194.881889763,1180.98425197 L 184.251968503,1180.98425197 L 184.251968503,1142.00787401 L 194.881889763,1142.00787401 L 194.881889763,1107.28346457 L 184.251968503,1107.28346457 L 184.251968503,1068.3070866 L 194.881889763,1068.3070866 L 194.881889763,1033.58267717 L 184.251968503,1033.58267717 L 184.251968503,994.606299203 L 194.881889763,994.606299203 L 194.881889763,959.881889765 L 184.251968503,959.881889765 L 184.251968503,920.905511802 L 194.881889763,920.905511802 L 194.881889763,886.181102364 L 184.251968503,886.181102364 L 184.251968503,847.204724401 L 194.881889763,847.204724401 L 194.881889763,812.480314963 L 184.251968503,812.480314963 L 184.251968503,773.503937 L 194.881889763,773.503937 L 194.881889763,738.779527561 L 184.251968503,738.779527561 L 184.251968503,699.803149598 L 194.881889763,699.803149598 L 194.881889763,665.07874016 L 184.251968503,665.07874016 L 184.251968503,626.102362197 L 194.881889763,626.102362197 L 194.881889763,591.377952759 L 184.251968503,591.377952759 L 184.251968503,552.401574796 L 194.881889763,552.401574796 L 194.881889763,517.677165358 L 184.251968503,517.677165358 L 184.251968503,478.700787394 L 194.881889763,478.700787394 L 194.881889763,443.976377956 L 184.251968503,443.976377956 L 184.251968503,404.999999993 L 194.881889763,404.999999993 L 194.881889763,370.275590555 L 184.251968503,370.275590555 L 184.251968503,331.299212592 L 194.881889763,331.299212592 L 194.881889763,296.574803154 L 184.251968503,296.574803154 L 184.251968503,257.598425191 L 194.881889763,257.598425191 L 194.881889763,222.874015752 L 184.251968503,222.874015752 L 184.251968503,184.251968503 "
     style="stroke:#000000;fill:none"
     inkscape:label="part" />
  <path
     id="path4121"
     d="M 1505.90551181,194.881889763 L 1558.70078739,194.881889763 L 1558.70078739,184.251968503 L 1594.84251968,184.251968503 L 1594.84251968,194.881889763 L 1647.63779527,194.881889763 "
     style="stroke:#000000;fill:none"
     inkscape:label="part" />
  <path
     id="path4123"
     d="M 1647.63779527,194.881889763 L 1647.63779527,222.165354325 L 1658.26771653,222.165354325 L 1658.26771653,258.307086618 L 1647.63779527,258.307086618 L 1647.63779527,295.866141726 L 1658.26771653,295.866141726 L 1658.26771653,332.00787402 L 1647.63779527,332.00787402 L 1647.63779527,369.566929127 L 1658.26771653,369.566929127 L 1658.26771653,405.708661421 L 1647.63779527,405.708661421 L 1647.63779527,443.267716528 L 1658.26771653,443.267716528 L 1658.26771653,479.409448822 L 1647.63779527,479.409448822 L 1647.63779527,516.96850393 L 1658.26771653,516.96850393 L 1658.26771653,553.110236224 L 1647.63779527,553.110236224 L 1647.63779527,590.669291331 L 1658.26771653,590.669291331 L 1658.26771653,626.811023625 L 1647.63779527,626.811023625 L 1647.63779527,664.370078732 L 1658.26771653,664.370078732 L 1658.26771653,700.511811026 L 1647.63779527,700.511811026 L 1647.63779527,738.070866134 L 1658.26771653,738.070866134 L 1658.26771653,774.212598427 L 1647.63779527,774.212598427 L 1647.63779527,811.771653535 L 1658.26771653,811.771653535 L 1658.26771653,847.913385829 L 1647.63779527,847.913385829 L 1647.63779527,885.472440936 L 1658.26771653,885.472440936 L 1658.26771653,921.61417323 L 1647.63779527,921.61417323 L 1647.63779527,959.173228337 L 1658.26771653,959.173228337 L 1658.26771653,995.314960631 L 1647.63779527,995.314960631 L 1647.63779527,1032.87401574 L 1658.26771653,1032.87401574 L 1658.26771653,1069.01574803 L 1647.63779527,1069.01574803 L 1647.63779527,1106.57480314 L 1658.26771653,1106.57480314 L 1658.26771653,1142.71653543 L 1647.63779527,1142.71653543 L 1647.63779527,1180.27559054 L 1658.26771653,1180.27559054 L 1658.26771653,1216.41732284 L 1647.63779527,1216.41732284 L 1647.63779527,1243.7007874 "
     style="stroke:#000000;fill:none"
     inkscape:label="part" />
  <path
     id="path4125"
     d="M 1647.63779527,1243.7007874 L 1594.84251968,1243.7007874 L 1594.84251968,1254.33070866 L 1558.70078739,1254.33070866 L 1558.70078739,1243.7007874 L 1505.90551181,1243.7007874 "
     style="stroke:#000000;fill:none"
     inkscape:label="part" />
  <path
     id="path4127"
     d="M 1505.90551181,1243.7007874 L 1505.90551181,1216.41732284 L 1495.27559055,1216.41732284 L 1495.27559055,1180.27559054 L 1505.90551181,1180.27559054 L 1505.90551181,1142.71653543 L 1495.27559055,1142.71653543 L 1495.27559055,1106.57480314 L 1505.90551181,1106.57480314 L 1505.90551181,1069.01574803 L 1495.27559055,1069.01574803 L 1495.27559055,1032.87401574 L 1505.90551181,1032.87401574 L 1505.90551181,995.314960631 L 1495.27559055,995.314960631 L 1495.27559055,959.173228337 L 1505.90551181,959.173228337 L 1505.90551181,921.61417323 L 1495.27559055,921.61417323 L 1495.27559055,885.472440936 L 1505.90551181,885.472440936 L 1505.90551181,847.913385829 L 1495.27559055,847.913385829 L 1495.27559055,811.771653535 L 1505.90551181,811.771653535 L 1505.90551181,774.212598427 L 1495.27559055,774.212598427 L 1495.27559055,738.070866133 L 1505.90551181,738.070866133 L 1505.90551181,700.511811026 L 1495.27559055,700.511811026 L 1495.27559055,664.370078732 L 1505.90551181,664.370078732 L 1505.90551181,626.811023625 L 1495.27559055,626.811023625 L 1495.27559055,590.669291331 L 1505.90551181,590.669291331 L 1505.90551181,553.110236224 L 1495.27559055,553.110236224 L 1495.27559055,516.96850393 L 1505.90551181,516.96850393 L 1505.90551181,479.409448822 L 1495.27559055,479.409448822 L 1495.27559055,443.267716528 L 1505.90551181,443.267716528 L 1505.90551181,405.708661421 L 1495.27559055,405.708661421 L 1495.27559055,369.566929127 L 1505.90551181,369.566929127 L 1505.90551181,332.00787402 L 1495.27559055,332.00787402 L 1495.27559055,295.866141726 L 1505.90551181,295.866141726 L 1505.90551181,258.307086618 L 1495.27559055,258.307086618 L 1495.27559055,222.165354325 L 1505.90551181,222.165354325 L 1505.90551181,194.881889763 "
     style="stroke:#000000;fill:none"
     inkscape:label="part" />
  <path
     id="path4129"
     d="M 1668.89763779,184.251968503 L 1708.03149606,184.251968503 L 1708.03149606,194.881889763 L 1742.7559055,194.881889763 L 1742.7559055,184.251968503 L 1782.24409449,184.251968503 L 1782.24409449,194.881889763 L 1816.96850392,194.881889763 L 1816.96850392,184.251968503 L 1856.45669291,184.251968503 L 1856.45669291,194.881889763 L 1891.18110235,194.881889763 L 1891.18110235,184.251968503 L 1930.66929134,184.251968503 L 1930.66929134,194.881889763 L 1965.39370077,194.881889763 L 1965.39370077,184.251968503 L 2004.88188976,184.251968503 L 2004.88188976,194.881889763 L 2039.6062992,194.881889763 L 2039.6062992,184.251968503 L 2079.09448819,184.251968503 L 2079.09448819,194.881889763 L 2113.81889762,194.881889763 L 2113.81889762,184.251968503 L 2153.30708661,184.251968503 L 2153.30708661,194.881889763 L 2188.03149605,194.881889763 L 2188.03149605,184.251968503 L 2227.51968504,184.251968503 L 2227.51968504,194.881889763 L 2262.24409447,194.881889763 L 2262.24409447,184.251968503 L 2301.73228346,184.251968503 L 2301.73228346,194.881889763 L 2336.4566929,194.881889763 L 2336.4566929,184.251968503 L 2375.94488189,184.251968503 L 2375.94488189,194.881889763 L 2410.66929132,194.881889763 L 2410.66929132,184.251968503 L 2450.15748031,184.251968503 L 2450.15748031,194.881889763 L 2484.88188975,194.881889763 L 2484.88188975,184.251968503 L 2524.37007874,184.251968503 L 2524.37007874,194.881889763 L 2559.09448817,194.881889763 L 2559.09448817,184.251968503 L 2598.58267716,184.251968503 L 2598.58267716,194.881889763 L 2633.3070866,194.881889763 L 2633.3070866,184.251968503 L 2672.79527559,184.251968503 L 2672.79527559,194.881889763 L 2707.51968502,194.881889763 L 2707.51968502,184.251968503 L 2747.00787401,184.251968503 L 2747.00787401,194.881889763 L 2781.73228345,194.881889763 L 2781.73228345,184.251968503 L 2821.22047243,184.251968503 L 2821.22047243,194.881889763 L 2855.94488187,194.881889763 L 2855.94488187,184.251968503 L 2895.43307086,184.251968503 L 2895.43307086,194.881889763 L 2930.1574803,194.881889763 L 2930.1574803,184.251968503 L 2969.29133857,184.251968503 "
     style="stroke:#000000;fill:none"
     inkscape:label="part" />
  <path
     id="path4131"
     d="M 2969.29133857,184.251968503 L 2969.29133857,222.874015752 L 2958.66141731,222.874015752 L 2958.66141731,257.598425191 L 2969.29133857,257.598425191 L 2969.29133857,296.574803154 L 2958.66141731,296.574803154 L 2958.66141731,331.299212592 L 2969.29133857,331.299212592 L 2969.29133857,370.275590555 L 2958.66141731,370.275590555 L 2958.66141731,404.999999993 L 2969.29133857,404.999999993 L 2969.29133857,443.976377956 L 2958.66141731,443.976377956 L 2958.66141731,478.700787394 L 2969.29133857,478.700787394 L 2969.29133857,517.677165358 L 2958.66141731,517.677165358 L 2958.66141731,552.401574796 L 2969.29133857,552.401574796 L 2969.29133857,591.377952759 L 2958.66141731,591.377952759 L 2958.66141731,626.102362197 L 2969.29133857,626.102362197 L 2969.29133857,665.07874016 L 2958.66141731,665.07874016 L 2958.66141731,699.803149598 L 2969.29133857,699.803149598 L 2969.29133857,738.779527561 L 2958.66141731,738.779527561 L 2958.66141731,773.503937 L 2969.29133857,773.503937 L 2969.29133857,812.480314963 L 2958.66141731,812.480314963 L 2958.66141731,847.204724401 L 2969.29133857,847.204724401 L 2969.29133857,886.181102364 L 2958.66141731,886.181102364 L 2958.66141731,920.905511802 L 2969.29133857,920.905511802 L 2969.29133857,959.881889765 L 2958.66141731,959.881889765 L 2958.66141731,994.606299203 L 2969.29133857,994.606299203 L 2969.29133857,1033.58267717 L 2958.66141731,1033.58267717 L 2958.66141731,1068.3070866 L 2969.29133857,1068.3070866 L 2969.29133857,1107.28346457 L 2958.66141731,1107.28346457 L 2958.66141731,1142.00787401 L 2969.29133857,1142.00787401 L 2969.29133857,1180.98425197 L 2958.66141731,1180.98425197 L 2958.66141731,1215.70866141 L 2969.29133857,1215.70866141 L 2969.29133857,1254.33070866 "
     style="stroke:#000000;fill:none"
     inkscape:label="part" />
  <path
     id="path4133"
     d="M 2969.29133857,1254.33070866 L 2930.1574803,1254.33070866 L 2930.1574803,1243.7007874 L 2895.43307086,1243.7007874 L 2895.43307086,1254.33070866 L 2855.94488187,1254.33070866 L 2855.94488187,1243.7007874 L 2821.22047243,1243.7007874 L 2821.22047243,1254.33070866 L 2781.73228345,1254.33070866 L 2781.73228345,1243.7007874 L 2747.00787401,1243.7007874 L 2747.00787401,1254.33070866 L 2707.51968502,1254.33070866 L 2707.51968502,1243.7007874 L 2672.79527559,1243.7007874 L 2672.79527559,1254.33070866 L 2633.3070866,1254.33070866 L 2633.3070866,1243.7007874 L 2598.58267716,1243.7007874 L 2598.58267716,1254.33070866 L 2559.09448817,1254.33070866 L 2559.09448817,1243.7007874 L 2524.37007874,1243.7007874 L 2524.37007874,1254.33070866 L 2484.88188975,1254.33070866 L 2484.88188975,1243.7007874 L 2450.15748031,1243.7007874 L 2450.15748031,1254.33070866 L 2410.66929132,1254.33070866 L 2410.66929132,1243.7007874 L 2375.94488189,1243.7007874 L 2375.94488189,1254.33070866 L 2336.4566929,1254.33070866 L 2336.4566929,1243.7007874 L 2301.73228346,1243.7007874 L 2301.73228346,1254.33070866 L 2262.24409447,1254.33070866 L 2262.24409447,1243.7007874 L 2227.51968504,1243.7007874 L 2227.51968504,1254.33070866 L 2188.03149605,1254.33070866 L 2188.03149605,1243.7007874 L 2153.30708661,1243.7007874 L 2153.30708661,1254.33070866 L 2113.81889762,1254.33070866 L 2113.81889762,1243.7007874 L 2079.09448819,1243.7007874 L 2079.09448819,1254.33070866 L 2039.6062992,1254.33070866 L 2039.6062992,1243.7007874 L 2004.88188976,1243.7007874 L 2004.88188976,1254.33070866 L 1965.39370077,1254.33070866 L 1965.39370077,1243.7007874 L 1930.66929134,1243.7007874 L 1930.66929134,1254.33070866 L 1891.18110235,1254.33070866 L 1891.18110235,1243.7007874 L 1856.45669291,1243.7007874 L 1856.45669291,1254.33070866 L 1816.96850392,1254.33070866 L 1816.96850392,1243.7007874 L 1782.24409449,1243.7007874 L 1782.24409449,1254.33070866 L 1742.7559055,1254.33070866 L 1742.7559055,1243.7007874 L 1708.03149606,1243.7007874 L 1708.03149606,1254.33070866 L 1668.89763779,1254.33070866 "
     style="stroke:#000000;fill:none"
     inkscape:label="part" />
  <path
     id="path4135"
     d="M 1668.89763779,1254.33070866 L 1668.89763779,1215.70866141 L 1679.52755905,1215.70866141 L 1679.52755905,1180.98425197 L 1668.89763779,1180.98425197 L 1668.89763779,1142.00787401 L 1679.52755905,1142.00787401 L 1679.52755905,1107.28346457 L 1668.89763779,1107.28346457 L 1668.89763779,1068.3070866 L 1679.52755905,1068.3070866 L 1679.52755905,1033.58267717 L 1668.89763779,1033.58267717 L 1668.89763779,994.606299203 L 1679.52755905,994.606299203 L 1679.52755905,959.881889765 L 1668.89763779,959.881889765 L 1668.89763779,920.905511802 L 1679.52755905,920.905511802 L 1679.52755905,886.181102364 L 1668.89763779,886.181102364 L 1668.89763779,847.204724401 L 1679.52755905,847.204724401 L 1679.52755905,812.480314963 L 1668.89763779,812.480314963 L 1668.89763779,773.503937 L 1679.52755905,773.503937 L 1679.52755905,738.779527561 L 1668.89763779,738.779527561 L 1668.89763779,699.803149598 L 1679.52755905,699.803149598 L 1679.52755905,665.07874016 L 1668.89763779,665.07874016 L 1668.89763779,626.102362197 L 1679.52755905,626.102362197 L 1679.52755905,591.377952759 L 1668.89763779,591.377952759 L 1668.89763779,552.401574796 L 1679.52755905,552.401574796 L 1679.52755905,517.677165358 L 1668.89763779,517.677165358 L 1668.89763779,478.700787394 L 1679.52755905,478.700787394 L 1679.52755905,443.976377956 L 1668.89763779,443.976377956 L 1668.89763779,404.999999993 L 1679.52755905,404.999999993 L 1679.52755905,370.275590555 L 1668.89763779,370.275590555 L 1668.89763779,331.299212592 L 1679.52755905,331.299212592 L 1679.52755905,296.574803154 L 1668.89763779,296.574803154 L 1668.89763779,257.598425191 L 1679.52755905,257.598425191 L 1679.52755905,222.874015752 L 1668.89763779,222.874015752 L 1668.89763779,184.251968503 "
     style="stroke:#000000;fill:none"
     inkscape:label="part" />
  <path
     id="path4137"
     d="M 184.251968503,21.2598425196 L 222.677165348,21.2598425196 L 222.677165348,10.6299212598 L 258.818897642,10.6299212598 L 258.818897642,21.2598425196 L 296.889763773,21.2598425196 L 296.889763773,10.6299212598 L 333.031496067,10.6299212598 L 333.031496067,21.2598425196 L 371.102362198,21.2598425196 L 371.102362198,10.6299212598 L 407.244094492,10.6299212598 L 407.244094492,21.2598425196 L 445.314960623,21.2598425196 L 445.314960623,10.6299212598 L 481.456692917,10.6299212598 L 481.456692917,21.2598425196 L 519.527559048,21.2598425196 L 519.527559048,10.6299212598 L 555.669291342,10.6299212598 L 555.669291342,21.2598425196 L 593.740157473,21.2598425196 L 593.740157473,10.6299212598 L 629.881889767,10.6299212598 L 629.881889767,21.2598425196 L 667.952755898,21.2598425196 L 667.952755898,10.6299212598 L 704.094488191,10.6299212598 L 704.094488191,21.2598425196 L 742.165354322,21.2598425196 L 742.165354322,10.6299212598 L 778.307086616,10.6299212598 L 778.307086616,21.2598425196 L 816.377952747,21.2598425196 L 816.377952747,10.6299212598 L 852.519685041,10.6299212598 L 852.519685041,21.2598425196 L 890.590551172,21.2598425196 L 890.590551172,10.6299212598 L 926.732283466,10.6299212598 L 926.732283466,21.2598425196 L 964.803149597,21.2598425196 L 964.803149597,10.6299212598 L 1000.94488189,10.6299212598 L 1000.94488189,21.2598425196 L 1039.01574802,21.2598425196 L 1039.01574802,10.6299212598 L 1075.15748032,10.6299212598 L 1075.15748032,21.2598425196 L 1113.22834645,21.2598425196 L 1113.22834645,10.6299212598 L 1149.37007874,10.6299212598 L 1149.37007874,21.2598425196 L 1187.44094487,21.2598425196 L 1187.44094487,10.6299212598 L 1223.58267717,10.6299212598 L 1223.58267717,21.2598425196 L 1261.6535433,21.2598425196 L 1261.6535433,10.6299212598 L 1297.79527559,10.6299212598 L 1297.79527559,21.2598425196 L 1335.86614172,21.2598425196 L 1335.86614172,10.6299212598 L 1372.00787402,10.6299212598 L 1372.00787402,21.2598425196 L 1410.07874015,21.2598425196 L 1410.07874015,10.6299212598 L 1446.22047244,10.6299212598 L 1446.22047244,21.2598425196 L 1484.64566929,21.2598425196 "
     style="stroke:#000000;fill:none"
     inkscape:label="part" />
  <path
     id="path4139"
     d="M 1484.64566929,21.2598425196 L 1484.64566929,74.7637795325 L 1474.01574803,74.7637795325 L 1474.01574803,109.488188971 L 1484.64566929,109.488188971 L 1484.64566929,162.992125984 "
     style="stroke:#000000;fill:none"
     inkscape:label="part" />
  <path
     id="path4141"
     d="M 1484.64566929,162.992125984 L 1446.22047244,162.992125984 L 1446.22047244,173.622047243 L 1410.07874015,173.622047243 L 1410.07874015,162.992125984 L 1372.00787402,162.992125984 L 1372.00787402,173.622047243 L 1335.86614172,173.622047243 L 1335.86614172,162.992125984 L 1297.79527559,162.992125984 L 1297.79527559,173.622047243 L 1261.6535433,173.622047243 L 1261.6535433,162.992125984 L 1223.58267717,162.992125984 L 1223.58267717,173.622047243 L 1187.44094487,173.622047243 L 1187.44094487,162.992125984 L 1149.37007874,162.992125984 L 1149.37007874,173.622047243 L 1113.22834645,173.622047243 L 1113.22834645,162.992125984 L 1075.15748032,162.992125984 L 1075.15748032,173.622047243 L 1039.01574802,173.622047243 L 1039.01574802,162.992125984 L 1000.94488189,162.992125984 L 1000.94488189,173.622047243 L 964.803149597,173.622047243 L 964.803149597,162.992125984 L 926.732283466,162.992125984 L 926.732283466,173.622047243 L 890.590551172,173.622047243 L 890.590551172,162.992125984 L 852.519685041,162.992125984 L 852.519685041,173.622047243 L 816.377952747,173.622047243 L 816.377952747,162.992125984 L 778.307086616,162.992125984 L 778.307086616,173.622047243 L 742.165354322,173.622047243 L 742.165354322,162.992125984 L 704.094488191,162.992125984 L 704.094488191,173.622047243 L 667.952755898,173.622047243 L 667.952755898,162.992125984 L 629.881889767,162.992125984 L 629.881889767,173.622047243 L 593.740157473,173.622047243 L 593.740157473,162.992125984 L 555.669291342,162.992125984 L 555.669291342,173.622047243 L 519.527559048,173.622047243 L 519.527559048,162.992125984 L 481.456692917,162.992125984 L 481.456692917,173.622047243 L 445.314960623,173.622047243 L 445.314960623,162.992125984 L 407.244094492,162.992125984 L 407.244094492,173.622047243 L 371.102362198,173.622047243 L 371.102362198,162.992125984 L 333.031496067,162.992125984 L 333.031496067,173.622047243 L 296.889763773,173.622047243 L 296.889763773,162.992125984 L 258.818897642,162.992125984 L 258.818897642,173.622047243 L 222.677165348,173.622047243 L 222.677165348,162.992125984 L 184.251968503,162.992125984 "
     style="stroke:#000000;fill:none"
     inkscape:label="part" />
  <path
     id="path4143"
     d="M 184.251968503,162.992125984 L 184.251968503,109.488188971 L 194.881889763,109.488188971 L 194.881889763,74.7637795325 L 184.251968503,74.7637795325 L 184.251968503,21.2598425196 "
     style="stroke:#000000;fill:none"
     inkscape:label="part" />
</svg>
