<?xml version="1.0" encoding="UTF-8" standalone="no"?>
<!-- Created with Inkscape (http://www.inkscape.org/) -->

<svg
   xmlns:dc="http://purl.org/dc/elements/1.1/"
   xmlns:cc="http://creativecommons.org/ns#"
   xmlns:rdf="http://www.w3.org/1999/02/22-rdf-syntax-ns#"
   xmlns:svg="http://www.w3.org/2000/svg"
   xmlns="http://www.w3.org/2000/svg"
   xmlns:sodipodi="http://sodipodi.sourceforge.net/DTD/sodipodi-0.dtd"
   xmlns:inkscape="http://www.inkscape.org/namespaces/inkscape"
   width="4212.9922"
   height="2979.9211"
   id="svg2"
   version="1.1"
   inkscape:version="0.48.3.1 r9886"
   sodipodi:docname="ply-sheet.svg">
  <title
     id="title2987">Laser A0 Template</title>
  <defs
     id="defs4" />
  <sodipodi:namedview
     id="base"
     pagecolor="#ffffff"
     bordercolor="#666666"
     borderopacity="1.0"
     inkscape:pageopacity="0.0"
     inkscape:pageshadow="2"
     inkscape:zoom="0.24740773"
     inkscape:cx="2266.8858"
     inkscape:cy="2092.0963"
     inkscape:document-units="mm"
     inkscape:current-layer="layer1"
     showgrid="true"
     units="mm"
     width="1200mm"
     inkscape:window-width="1366"
     inkscape:window-height="709"
     inkscape:window-x="-2"
     inkscape:window-y="-3"
     inkscape:window-maximized="1"
     showguides="true"
     inkscape:guide-bbox="true"
     inkscape:snap-bbox="true"
     inkscape:bbox-paths="true"
     inkscape:snap-grids="true"
     inkscape:bbox-nodes="true"
     inkscape:snap-bbox-edge-midpoints="true"
     inkscape:object-nodes="true">
    <inkscape:grid
       type="xygrid"
       id="grid2985"
       empspacing="5"
       visible="true"
       enabled="true"
       snapvisiblegridlinesonly="true"
       units="mm"
       spacingx="1mm"
       spacingy="1mm" />
  </sodipodi:namedview>
  <metadata
     id="metadata7">
    <rdf:RDF>
      <cc:Work
         rdf:about="">
        <dc:format>image/svg+xml</dc:format>
        <dc:type
           rdf:resource="http://purl.org/dc/dcmitype/StillImage" />
        <dc:title>Laser A0 Template</dc:title>
      </cc:Work>
    </rdf:RDF>
  </metadata>
  <g
     inkscape:label="Layer 1"
     inkscape:groupmode="layer"
     id="layer1"
     transform="translate(0,1927.5603)">
    <path
       style="fill:#00ffff;fill-opacity:1;stroke:#000080;stroke-width:3.54330707;stroke-miterlimit:4;stroke-opacity:1"
       d="m 602.3622,-1463.3872 396.00968,1524.375128 -396.00968,0 z"
       id="rect3028"
       inkscape:connector-curvature="0"
       sodipodi:nodetypes="cccc" />
    <rect
       style="fill:#00ffff;fill-opacity:1;stroke:#000080;stroke-width:3.54330707;stroke-miterlimit:4;stroke-opacity:1;stroke-dasharray:none"
       id="rect3050"
       width="248.03145"
       height="425.19684"
       x="602.36224"
       y="-1888.5839" />
    <rect
       style="fill:#ffff00;fill-opacity:1;stroke:#000080;stroke-width:3.54330707;stroke-miterlimit:4;stroke-opacity:1;stroke-dasharray:none"
       id="rect2985"
       width="4344.8491"
       height="2165.3542"
       x="35.433071"
       y="-1888.584" />
    <rect
       style="fill:#ff00ff;stroke:#000000;stroke-width:1;stroke-opacity:1"
       id="rect2997"
       width="1488.189"
       height="2161.417"
       x="2890.9133"
       y="-1888.584" />
    <rect
       style="fill:#00ff00;stroke:#000000;stroke-width:0.54000002;stroke-miterlimit:4;stroke-opacity:1;stroke-dasharray:none"
       id="rect2992"
       width="1289.7638"
       height="1056.3279"
       x="2990.126"
       y="-1208.6914" />
    <path
       style="opacity:0.52105264;fill:#0000ff;stroke:#000000;stroke-width:1;stroke-linecap:round;stroke-linejoin:round;stroke-miterlimit:10;stroke-opacity:1;stroke-dasharray:none;display:none"
       d="m 1299.6709,-2249.823 -1684.81255,496.8437 -608.09375,652.875 0,5198.9376 2343.4063,0 0,-1891.375 362.9062,-180.0313 0,-1665.78122 -579.2188,-88.8125 -396.5937,-1526.53128 562.4063,-276.0313 0,-720.0937 z"
       id="path4179"
       inkscape:connector-curvature="0"
       sodipodi:insensitive="true" />
    <path
       sodipodi:nodetypes="ccccc"
       inkscape:connector-curvature="0"
       id="path3023"
       d="m 1842.5197,95.66789 -708.6614,-106.2992 0,283.46459 708.6614,0 z"
       style="fill:#00ffff;stroke:#000000;stroke-width:1;stroke-opacity:1" />
    <path
       style="fill:#80005d;fill-opacity:0.37016578;stroke:#000000;stroke-width:1px;stroke-linecap:butt;stroke-linejoin:miter;stroke-opacity:1"
       d="m 1077.1654,1920.4723 c 3.6162,4.7941 3.5433,10.6299 3.5433,14.3623 0,74.2204 0,230.1259 0,230.1259 0,0 0,14.1732 -10.63,24.8032 -10.63,10.63 -24.8031,10.6299 -24.8031,10.6299 l -938.97639,0 c 0,0 -32.959238,-4.6128 -49.606297,-21.2599 -16.647058,-16.647 -21.259842,-49.1289 -21.259842,-49.1289 l 0,-1807.38744 c 0,0 0.626899,-12.34889 3.543307,-17.89307 2.916408,-5.54418 12.685082,-11.15702 12.685082,-11.15702 L 306.2804,118.51675 c 0,0 8.08126,-4.90408 12.61724,-6.67435 4.53598,-1.77027 13.76396,-3.96628 13.76396,-3.96628 L 779.34327,44.064455 c 0,0 19.23785,-1.864254 28.53075,5.541727 9.29289,7.405981 10.01971,24.567304 10.01971,24.567304 l 29.55822,354.698584 c 0,0 3.21882,18.9746 -4.14486,28.21443 -7.36369,9.23982 -28.02453,12.10249 -28.02453,12.10249 l -177.68241,25.3832 c 0,0 -17.9373,2.13501 -24.60802,12.12061 -6.67071,9.9856 -1.57492,28.22791 -1.57492,28.22791 L 952.21706,1864.0401 c 0,0 3.75968,9.5352 8.01916,13.9125 4.25948,4.3774 14.36599,8.6602 14.36599,8.6602 l 88.67949,25.337 c 0,0 10.2676,3.7284 13.8837,8.5225 z"
       id="path3052"
       inkscape:connector-curvature="0"
       sodipodi:nodetypes="zcczcczcczcczcczcczcczcczccz"
       transform="translate(0,-1927.5603)" />
    <path
       style="fill:#00ffff;fill-opacity:1;stroke:#000080;stroke-width:3.54330707;stroke-miterlimit:4;stroke-opacity:1"
       d="m 637.79528,-4478.7415 10e-6,719.9998 -562.500002,279 -487.856778,-263.325 -445.89323,-240.6748 z"
       id="rect3054"
       inkscape:connector-curvature="0"
       sodipodi:nodetypes="cccccc" />
    <path
       style="fill:#00ffff;fill-opacity:1;stroke:#000080;stroke-width:3.54330707;stroke-miterlimit:4;stroke-opacity:1"
       d="m -858.45472,-3980.1982 0,652.5 -607.49998,0 z"
       id="rect3056"
       inkscape:connector-curvature="0"
       sodipodi:nodetypes="cccc" />
    <rect
       style="fill:#00ffff;fill-opacity:1;stroke:#000080;stroke-width:3.54330707;stroke-miterlimit:4;stroke-opacity:1;stroke-dasharray:none"
       id="rect3060"
       width="360"
       height="720"
       x="637.79529"
       y="-4478.7417" />
    <path
       style="fill:#00ffff;fill-opacity:1;stroke:#000080;stroke-width:3.54330707;stroke-miterlimit:4;stroke-opacity:1"
       d="m 75.295288,-3758.7417 562.500002,0 -562.500002,279 z"
       id="rect3062"
       inkscape:connector-curvature="0"
       sodipodi:nodetypes="cccc" />
    <rect
       y="-1081.8705"
       x="771.77728"
       height="1048.8188"
       width="70.866142"
       id="rect3032"
       style="fill:#ff0000;stroke:#000000;stroke-width:0.54000002;stroke-miterlimit:4;stroke-opacity:1;stroke-dasharray:none"
       transform="matrix(0.96882381,-0.24775073,0.24775073,0.96882381,0,0)"
       inkscape:transform-center-x="-280.90763"
       inkscape:transform-center-y="-119.58045" />
    <rect
       style="opacity:0.52105264;fill:#80005d;fill-opacity:0.37016578;stroke:#000080;stroke-width:1;stroke-miterlimit:4;stroke-opacity:1;stroke-dasharray:none"
       id="rect4141"
       width="17.716536"
       height="283.46457"
       x="1098.4252"
       y="1916.9291"
       transform="translate(0,-1927.5603)" />
    <rect
       style="fill:#ff00ff;fill-opacity:1;stroke:#000000;stroke-width:0.99999994;stroke-opacity:1"
       id="rect3001"
       width="248.03149"
       height="35.433018"
       x="832.67719"
       y="-2030.3163" />
    <rect
       y="-1941.7336"
       x="35.433075"
       height="35.433018"
       width="1877.9528"
       id="rect3003"
       style="fill:#ff00ff;fill-opacity:1;stroke:#000000;stroke-width:0.99999988;stroke-opacity:1" />
    <rect
       style="fill:#ff0000;fill-opacity:1;stroke:#000000;stroke-opacity:1"
       id="rect3005"
       width="2125.9841"
       height="283.46457"
       x="1913.3859"
       y="414.56555" />
    <rect
       style="fill:#008080;fill-opacity:1;stroke:#000000;stroke-width:1;stroke-opacity:1"
       id="rect3007"
       width="141.73221"
       height="478.3468"
       x="2890.9133"
       y="-1179.9226" />
    <path
       sodipodi:type="arc"
       style="fill:#ff0000;fill-opacity:1;stroke:#000000;stroke-width:0.99999917;stroke-opacity:1"
       id="path3013"
       sodipodi:cx="1346.4567"
       sodipodi:cy="1349.9999"
       sodipodi:rx="35.433071"
       sodipodi:ry="35.433071"
       d="m 1381.8897,1349.9999 a 35.433071,35.433071 0 1 1 -70.8661,0 35.433071,35.433071 0 1 1 70.8661,0 z"
       transform="matrix(1.0000011,0,0,1.0000007,-1488.1904,-1396.0652)" />
    <path
       transform="matrix(1.0000011,0,0,1.0000007,-1488.1905,-1573.2305)"
       d="m 1381.8897,1349.9999 a 35.433071,35.433071 0 1 1 -70.8661,0 35.433071,35.433071 0 1 1 70.8661,0 z"
       sodipodi:ry="35.433071"
       sodipodi:rx="35.433071"
       sodipodi:cy="1349.9999"
       sodipodi:cx="1346.4567"
       id="path3015"
       style="fill:#ff0000;fill-opacity:1;stroke:#000000;stroke-width:0.99999917;stroke-opacity:1"
       sodipodi:type="arc" />
    <path
       sodipodi:nodetypes="zcczcczcczcczcczcczcczcczccz"
       inkscape:connector-curvature="0"
       id="path3021"
       d="m 864.97644,-1607.7836 c -3.6162,-4.7941 -3.5433,-10.6299 -3.5433,-14.3623 0,-74.2204 0,-230.1259 0,-230.1259 0,0 0,-14.1732 10.63,-24.8032 10.63,-10.63 24.8031,-10.6299 24.8031,-10.6299 l 938.97646,0 c 0,0 32.9592,4.6128 49.6063,21.2599 16.647,16.647 21.2598,49.1289 21.2598,49.1289 l 0,1807.38742 c 0,0 -0.6269,12.34889 -3.5433,17.893069 -2.9164,5.54418 -12.6851,11.15702 -12.6851,11.15702 L 1635.8615,194.17193 c 0,0 -8.0813,4.90408 -12.6173,6.67435 -4.5359,1.77027 -13.7639,3.96628 -13.7639,3.96628 l -446.6817,63.81166 c 0,0 -19.2379,1.86425 -28.5308,-5.54173 -9.2929,-7.40598 -10.0197,-24.5673 -10.0197,-24.5673 l -29.5582,-354.69858 c 0,0 -3.2188,-18.9746 4.1449,-28.21443 7.3636,-9.23982 28.0245,-12.10249 28.0245,-12.10249 l 177.6824,-25.3832 c 0,0 17.9373,-2.13501 24.6081,-12.12061 6.6707,-9.9856 1.5749,-28.22791 1.5749,-28.22791 L 989.92484,-1551.3514 c 0,0 -3.7597,-9.5352 -8.0192,-13.9125 -4.2595,-4.3774 -14.366,-8.6602 -14.366,-8.6602 l -88.6795,-25.337 c 0,0 -10.2676,-3.7284 -13.8837,-8.5225 z"
       style="fill:#80005d;fill-opacity:0.37016578;stroke:#000000;stroke-width:1px;stroke-linecap:butt;stroke-linejoin:miter;stroke-opacity:1" />
    <rect
       y="967.32422"
       x="-1736.2205"
       height="425.19693"
       width="1488.189"
       id="rect3027"
       style="fill:#00ffff;stroke:#000000;stroke-width:1;stroke-opacity:1"
       transform="scale(-1,-1)" />
    <rect
       transform="matrix(0,1,-1,0,0,0)"
       style="fill:#ff00ff;stroke:#000000;stroke-width:1;stroke-opacity:1"
       id="rect3029"
       width="1488.189"
       height="425.19693"
       x="-1870.8676"
       y="-2852.3623" />
  </g>
</svg>
